<svg width="89" height="90" viewBox="0 0 89 90" fill="none" xmlns="http://www.w3.org/2000/svg">
<path d="M42.835 0.0240122C41.4765 0.156373 40.0624 0.553454 39.0035 1.1038C36.6489 2.32987 34.8794 4.72629 34.1897 7.63822C33.8136 9.21262 33.8275 8.73194 33.7996 21.975L33.7718 34.2566H21.8454C8.92978 34.2566 9.03428 34.2566 7.41808 34.6328C4.61065 35.3016 2.26996 37.0432 1.10658 39.3421C0.312414 40.9234 -0.0777008 42.9228 0.0128617 45.0336C0.131289 47.8062 1.09961 50.0772 2.94569 51.9233C4.33896 53.3096 5.83672 54.1455 7.7873 54.6053C9.20843 54.9467 9.06214 54.9467 21.8105 54.9467H33.7718L33.7996 67.2214C33.8275 80.4713 33.8136 79.9907 34.1897 81.5651C34.8864 84.4979 36.5931 86.7968 38.9826 88.0229C39.8464 88.4687 40.7172 88.7543 41.7831 88.9563C42.9534 89.1793 45.2244 89.1793 46.4017 88.9563C48.4916 88.5662 49.9824 87.793 51.3687 86.4067C52.9989 84.7626 53.9115 82.8469 54.3016 80.2345C54.413 79.503 54.427 78.3536 54.4479 67.1865L54.4757 54.9467H66.4369C79.5894 54.9467 79.3177 54.9536 81.0036 54.5217C83.7901 53.8042 85.9845 52.0835 87.1757 49.6592C88.2277 47.5345 88.5411 44.4971 87.9769 41.8151C87.3987 39.0146 85.6919 36.7993 83.1213 35.4966C82.2854 35.0647 81.7977 34.8906 80.8085 34.6398C79.2898 34.2566 79.3386 34.2566 66.4021 34.2566H54.4757L54.4479 21.975C54.427 11.0796 54.413 9.61667 54.3085 8.95486C53.8975 6.23102 52.8944 4.23168 51.0831 2.4901C49.8013 1.25705 48.3453 0.539522 46.4226 0.184238C45.6703 0.0449113 43.5943 -0.0456512 42.835 0.0240122Z" fill="#147018"/>
</svg>
