<svg width="30" height="30" viewBox="0 0 30 30" fill="none" xmlns="http://www.w3.org/2000/svg">
<circle cx="15" cy="15" r="15" fill="#2C71C1"/>
<g clip-path="url(#clip0)">
<path d="M15.0008 30C23.2717 30 30.0004 23.2709 30.0004 14.9999C30.0004 6.72906 23.2717 0 15.0008 0C6.72991 0 0.000991821 6.72906 0.000991821 14.9999C0.000991821 23.2709 6.72991 30 15.0008 30ZM15.0008 2.05338C22.1394 2.05338 27.9471 7.86116 27.9472 14.9999C27.9472 22.1387 22.1396 27.9465 15.0008 27.9466C7.86215 27.9465 2.05451 22.1387 2.05451 14.9998C2.05451 7.86129 7.86215 2.05338 15.0008 2.05338Z" fill="#2564AC"/>
<path d="M12.9857 21.4246C13.3867 21.8254 14.0368 21.8252 14.4376 21.4246C14.8387 21.0235 14.8387 20.3735 14.4374 19.9724L10.4922 16.0273L21.9168 16.0262C22.4838 16.0261 22.9434 15.5665 22.9434 14.9993C22.9432 14.4323 22.4837 13.9728 21.9167 13.9728L10.4917 13.9739L14.4378 10.028C14.8388 9.62708 14.8388 8.97684 14.4378 8.57602C14.2373 8.37561 13.9746 8.27527 13.7118 8.27527C13.4491 8.27527 13.1864 8.37561 12.9858 8.57588L7.28716 14.2744C7.09456 14.4669 6.98641 14.7279 6.98641 15.0004C6.98655 15.2728 7.09469 15.5337 7.2873 15.7266L12.9857 21.4246Z" fill="#DADADB"/>
</g>
<defs>
<clipPath id="clip0">
<rect width="30" height="30" fill="white"/>
</clipPath>
</defs>
</svg>
