<svg width="25" height="25" viewBox="0 0 25 25" fill="none" xmlns="http://www.w3.org/2000/svg">
<path d="M23.8636 12.8788H21.2121V4.16644C21.2121 3.53886 20.7033 3.03008 20.0758 3.03008H18.1818V1.13636C18.1818 0.508788 17.673 0 17.0455 0C16.4179 0 15.9091 0.508788 15.9091 1.13636V3.03008H13.6364V1.13636C13.6364 0.508788 13.1276 0 12.5 0C11.8724 0 11.3636 0.508788 11.3636 1.13636V3.03008H9.09091V1.13636C9.09091 0.508788 8.58212 0 7.95455 0C7.32697 0 6.81818 0.508788 6.81818 1.13636V3.03008H4.92424C4.29667 3.03008 3.78788 3.53886 3.78788 4.16644V12.8788H1.13636C0.508788 12.8788 0 13.3876 0 14.0152V18.9594C0 18.9608 0 18.9621 0 18.9634V23.8636C0 24.4912 0.508788 25 1.13636 25H23.8636C24.4912 25 25 24.4912 25 23.8636V14.0152C25 13.3876 24.4912 12.8788 23.8636 12.8788ZM7.95432 10.606H7.95439H7.95447C9.2753 10.606 9.97197 10.3737 10.5867 10.1689C11.1236 9.98985 11.5477 9.84841 12.4993 9.84841C12.4996 9.84841 12.5002 9.84841 12.5006 9.84841C13.4521 9.84841 13.8764 9.98985 14.4134 10.1689C15.028 10.3738 15.7247 10.606 17.0453 10.606H17.0454H17.0455C17.8808 10.606 18.4662 10.513 18.9394 10.3929V12.8786H6.06061V10.393C6.53379 10.513 7.11909 10.606 7.95432 10.606ZM18.9394 5.3028V8.01917C18.4114 8.19508 17.9858 8.33326 17.0454 8.33326C16.0936 8.33326 15.6692 8.19182 15.1321 8.0128C14.5175 7.80788 13.8209 7.57568 12.5007 7.57568C12.5002 7.57568 12.4998 7.57568 12.4992 7.57568C11.1791 7.57568 10.4823 7.80788 9.86788 8.01273C9.33076 8.19182 8.90644 8.33326 7.95447 8.33326H7.95439C7.01424 8.33326 6.58856 8.19523 6.06061 8.01924V5.3028H18.9394ZM22.7273 15.1515V17.493C22.4045 17.4507 22.0333 17.4242 21.5908 17.4242C21.5905 17.4242 21.5903 17.4242 21.59 17.4242C20.2699 17.4242 19.5733 17.6564 18.9589 17.8613C18.4217 18.0404 17.9974 18.1818 17.0454 18.1818C16.0936 18.1818 15.6692 18.0404 15.1321 17.8614C14.5175 17.6564 13.8209 17.4242 12.5007 17.4242C12.5002 17.4242 12.4998 17.4242 12.4992 17.4242C11.1791 17.4242 10.4823 17.6564 9.86788 17.8613C9.33076 18.0404 8.90644 18.1818 7.95447 18.1818H7.95439H7.95432C7.0025 18.1818 6.57818 18.0404 6.04098 17.8614C5.42644 17.6564 4.72985 17.4242 3.40962 17.4242C3.40939 17.4242 3.40917 17.4242 3.40886 17.4242C2.96652 17.4242 2.59538 17.4507 2.27273 17.493V15.1515H22.7273ZM2.27273 22.7273V19.7951C2.57008 19.7345 2.91955 19.697 3.40894 19.697C3.40917 19.697 3.40932 19.697 3.40962 19.697C4.36098 19.697 4.78523 19.8384 5.32227 20.0174C5.93697 20.2223 6.63364 20.4545 7.95432 20.4545H7.95439H7.95447C9.2753 20.4545 9.97197 20.2223 10.5867 20.0174C11.1236 19.8384 11.5477 19.697 12.4993 19.697C12.4996 19.697 12.5002 19.697 12.5006 19.697C13.4521 19.697 13.8764 19.8384 14.4134 20.0174C15.028 20.2223 15.7247 20.4545 17.0453 20.4545H17.0454H17.0455C18.3663 20.4545 19.063 20.2223 19.6776 20.0174C20.2145 19.8384 20.6386 19.697 21.59 19.697C21.5902 19.697 21.5905 19.697 21.5907 19.697C22.0802 19.697 22.4297 19.7345 22.7273 19.7952V22.7273H2.27273Z" fill="#2C71C1"/>
</svg>
