<svg width="17" height="17" viewBox="0 0 17 17" fill="none" xmlns="http://www.w3.org/2000/svg">
<path d="M10.3083 7.25933C10.9144 7.25933 11.4053 7.7943 11.4053 8.45624V11.2479C11.4053 11.9081 10.9144 12.4448 10.3083 12.4448H6.28589C5.67981 12.4448 5.18886 11.9098 5.18886 11.2479V8.45624C5.18886 7.79599 5.67981 7.25933 6.28589 7.25933H7.25933H9.33318H10.3083ZM8.28694 8.30049C7.71473 8.30049 7.24917 8.74404 7.24917 9.29255C7.24917 9.65822 7.53358 9.93925 7.8417 10.1102V11.3986H8.73049V10.1102C9.0403 9.93756 9.32302 9.65822 9.32302 9.29255C9.32471 8.74404 8.86085 8.30049 8.28694 8.30049ZM8.29541 5.18717C7.32027 5.18717 7.26102 6.00655 7.25763 6.22494V7.25933H6.21478V6.32483C6.21478 6.32483 6.21478 4.1477 8.29202 4.1477C10.3693 4.1477 10.3693 6.32483 10.3693 6.32483V7.25933H9.33318V6.22494C9.32979 6.01163 9.27054 5.18717 8.29541 5.18717ZM8.29541 16.5942C3.71431 16.5942 0 12.8799 0 8.29879C0 3.7177 3.71431 0.00338589 8.29541 0.00338589C9.77165 0.00338589 11.1565 0.391069 12.3585 1.06825L13.1304 0L14.5119 3.63136L10.889 3.09977L11.7439 1.91641C10.718 1.36112 9.5448 1.04116 8.29541 1.04116C4.28652 1.04116 1.03608 4.2916 1.03608 8.30049C1.03608 12.3094 4.28652 15.5581 8.29541 15.5581C12.3043 15.5581 15.5547 12.3077 15.5547 8.30049C15.5547 7.32197 15.3584 6.38916 15.0079 5.53761L15.9661 5.14315C16.3673 6.11659 16.5925 7.18145 16.5925 8.30049C16.5908 12.8799 12.8765 16.5942 8.29541 16.5942Z" fill="#494949"/>
</svg>
