<svg width="186" height="186" viewBox="0 0 186 186" fill="none" xmlns="http://www.w3.org/2000/svg">
<path d="M59.6304 74.6876C66.5933 74.6876 72.2378 69.0432 72.2378 62.0803C72.2378 55.1175 66.5933 49.473 59.6304 49.473C52.6676 49.473 47.0231 55.1175 47.0231 62.0803C47.0231 69.0432 52.6676 74.6876 59.6304 74.6876Z" fill="#2C71C1"/>
<path d="M126.364 74.6876C133.327 74.6876 138.971 69.0432 138.971 62.0803C138.971 55.1175 133.327 49.473 126.364 49.473C119.401 49.473 113.757 55.1175 113.757 62.0803C113.757 69.0432 119.401 74.6876 126.364 74.6876Z" fill="#2C71C1"/>
<path d="M152.697 106.276C149.637 105.357 146.385 107.11 145.467 110.182C145.365 110.527 134.6 144.903 93 144.903C51.6761 144.903 40.9665 111.577 40.5277 110.158C39.5977 107.092 36.3398 105.363 33.3028 106.276C30.225 107.197 28.4784 110.437 29.3968 113.509C29.5275 113.939 42.844 156.528 93 156.528C143.156 156.528 156.473 113.939 156.603 113.506C157.522 110.437 155.775 107.197 152.697 106.276V106.276Z" fill="#2C71C1"/>
</svg>
