<svg width="20" height="15" viewBox="0 0 20 15" fill="none" xmlns="http://www.w3.org/2000/svg">
<path d="M16.6159 0H3.3841C1.51375 0 0 1.52367 0 3.38414V10.9811C0 12.8498 1.52266 14.3652 3.3841 14.3652H16.6159C18.4808 14.3652 20 12.8461 20 10.9811V3.38414C20 1.52125 18.4839 0 16.6159 0ZM16.6159 1.49555C16.9989 1.49555 17.3553 1.61047 17.6532 1.80711L10.4567 6.51726C10.1793 6.69887 9.8207 6.69887 9.5432 6.51726L2.34672 1.80711C2.99734 1.3777 2.27484 1.49555 16.6159 1.49555ZM1.52461 3.05637L6.4768 6.29758L1.49555 10.8632C1.49555 2.73609 1.48309 3.29254 1.52461 3.05637ZM16.6159 12.8697H3.3841C2.88156 12.8697 2.42461 12.672 2.08586 12.3508L7.76801 7.14273C10.0957 8.66629 10.3707 8.36094 12.232 7.14273L17.9141 12.3508C17.5754 12.672 17.1184 12.8697 16.6159 12.8697ZM18.5045 10.8632L13.5233 6.29758L18.4755 3.05637C18.517 3.29254 18.5045 2.73754 18.5045 10.8632Z" fill="#2C71C1"/>
</svg>
