<svg width="18" height="18" viewBox="0 0 18 18" fill="none" xmlns="http://www.w3.org/2000/svg">
<circle cx="9" cy="9" r="9" fill="#2564AC"/>
<path d="M7.88574 10.9443C7.88574 10.3063 7.96322 9.79818 8.11816 9.41992C8.27311 9.04167 8.55566 8.67025 8.96582 8.30566C9.38053 7.93652 9.65625 7.63802 9.79297 7.41016C9.92969 7.17773 9.99805 6.93392 9.99805 6.67871C9.99805 5.90853 9.64258 5.52344 8.93164 5.52344C8.5944 5.52344 8.32324 5.62826 8.11816 5.83789C7.91764 6.04297 7.81283 6.3278 7.80371 6.69238H5.82129C5.8304 5.82194 6.11068 5.14062 6.66211 4.64844C7.2181 4.15625 7.97461 3.91016 8.93164 3.91016C9.89779 3.91016 10.6475 4.14486 11.1807 4.61426C11.7139 5.0791 11.9805 5.73763 11.9805 6.58984C11.9805 6.97721 11.8939 7.34408 11.7207 7.69043C11.5475 8.03223 11.2445 8.41276 10.8115 8.83203L10.2578 9.3584C9.91146 9.69108 9.71322 10.0807 9.66309 10.5273L9.63574 10.9443H7.88574ZM7.6875 13.043C7.6875 12.7376 7.79004 12.487 7.99512 12.291C8.20475 12.0905 8.47135 11.9902 8.79492 11.9902C9.11849 11.9902 9.38281 12.0905 9.58789 12.291C9.79753 12.487 9.90234 12.7376 9.90234 13.043C9.90234 13.3438 9.7998 13.5921 9.59473 13.7881C9.39421 13.984 9.1276 14.082 8.79492 14.082C8.46224 14.082 8.19336 13.984 7.98828 13.7881C7.78776 13.5921 7.6875 13.3438 7.6875 13.043Z" fill="#DADADB"/>
</svg>
