<svg width="19" height="16" viewBox="0 0 19 16" fill="none" xmlns="http://www.w3.org/2000/svg">
<path d="M9.45892 2.81413C12.6119 2.84506 14.5871 2.64889 14.8539 6.14362H18.6987C18.6987 0.729737 13.9771 0 9.35883 0C4.7402 0 0.0189252 0.729737 0.0189252 6.14362H3.83394C4.12911 2.58229 6.33215 2.78356 9.45892 2.81413Z" fill="#2C71C1"/>
<path d="M1.9257 7.88407C2.86217 7.88407 3.64141 7.94011 3.81465 7.01894C3.83794 6.89374 3.85141 6.75179 3.85141 6.58765H3.80701H0C0 7.95795 0.862218 7.88407 1.9257 7.88407Z" fill="#2C71C1"/>
<path d="M14.8786 6.58765H14.8426C14.8426 6.75288 14.8568 6.89519 14.8834 7.01894C15.0661 7.86842 15.8442 7.81564 16.7774 7.81564C17.846 7.81564 18.7122 7.88589 18.7122 6.58765H14.8786Z" fill="#2C71C1"/>
<path d="M13.0002 5.65445V5.10997C13.0002 4.86648 12.7196 4.8512 12.3731 4.8512H11.8072C11.4611 4.8512 11.1804 4.86648 11.1804 5.10997V5.57911V5.94307H7.1769V5.57911V5.10997C7.1769 4.86648 6.89628 4.8512 6.55016 4.8512H5.98384C5.63772 4.8512 5.3571 4.86648 5.3571 5.10997V5.65445V6.12978C4.44502 7.07753 1.46056 11.112 1.3521 11.6004L1.35356 14.8597C1.35356 15.1607 1.5985 15.4056 1.8995 15.4056H16.4578C16.7588 15.4056 17.0038 15.1607 17.0038 14.8597V11.5841C16.8964 11.1098 13.9127 7.07717 13.0002 6.12942V5.65445ZM6.97963 12.039C6.68664 12.039 6.44898 11.8017 6.44898 11.5084C6.44898 11.215 6.68664 10.9777 6.97963 10.9777C7.27262 10.9777 7.51028 11.215 7.51028 11.5084C7.51028 11.8017 7.27262 12.039 6.97963 12.039ZM6.97963 10.2192C6.68664 10.2192 6.44898 9.98192 6.44898 9.68857C6.44898 9.39522 6.68664 9.15792 6.97963 9.15792C7.27262 9.15792 7.51028 9.39522 7.51028 9.68857C7.51028 9.98192 7.27262 10.2192 6.97963 10.2192ZM6.97963 8.39979C6.68664 8.39979 6.44898 8.16249 6.44898 7.86914C6.44898 7.57615 6.68664 7.33849 6.97963 7.33849C7.27262 7.33849 7.51028 7.57615 7.51028 7.86914C7.51028 8.16249 7.27262 8.39979 6.97963 8.39979ZM9.16338 12.039C8.8704 12.039 8.63273 11.8017 8.63273 11.5084C8.63273 11.215 8.8704 10.9777 9.16338 10.9777C9.45673 10.9777 9.69403 11.215 9.69403 11.5084C9.69403 11.8017 9.45673 12.039 9.16338 12.039ZM9.16338 10.2192C8.8704 10.2192 8.63273 9.98192 8.63273 9.68857C8.63273 9.39522 8.8704 9.15792 9.16338 9.15792C9.45673 9.15792 9.69403 9.39522 9.69403 9.68857C9.69403 9.98192 9.45673 10.2192 9.16338 10.2192ZM9.16338 8.39979C8.8704 8.39979 8.63273 8.16249 8.63273 7.86914C8.63273 7.57615 8.8704 7.33849 9.16338 7.33849C9.45673 7.33849 9.69403 7.57615 9.69403 7.86914C9.69403 8.16249 9.45673 8.39979 9.16338 8.39979ZM11.3471 12.039C11.0538 12.039 10.8165 11.8017 10.8165 11.5084C10.8165 11.215 11.0538 10.9777 11.3471 10.9777C11.6405 10.9777 11.8778 11.215 11.8778 11.5084C11.8778 11.8017 11.6405 12.039 11.3471 12.039ZM11.3471 10.2192C11.0538 10.2192 10.8165 9.98192 10.8165 9.68857C10.8165 9.39522 11.0538 9.15792 11.3471 9.15792C11.6405 9.15792 11.8778 9.39522 11.8778 9.68857C11.8778 9.98192 11.6405 10.2192 11.3471 10.2192ZM11.3471 8.39979C11.0538 8.39979 10.8165 8.16249 10.8165 7.86914C10.8165 7.57615 11.0538 7.33849 11.3471 7.33849C11.6405 7.33849 11.8778 7.57615 11.8778 7.86914C11.8778 8.16249 11.6405 8.39979 11.3471 8.39979Z" fill="#2C71C1"/>
</svg>
