<svg width="22" height="22" viewBox="0 0 22 22" fill="none" xmlns="http://www.w3.org/2000/svg">
<path d="M18.3904 16.619L16.6155 18.3906C16.2916 18.7178 15.7627 18.7178 15.4355 18.3906L10.9998 13.9582L6.56742 18.3906C6.2402 18.7178 5.70805 18.7178 5.38413 18.3906L3.60919 16.619C3.28196 16.2918 3.28196 15.7629 3.60919 15.4357L8.04158 11L3.60919 6.5676C3.28527 6.23708 3.28527 5.70492 3.60919 5.38431L5.38413 3.60937C5.70805 3.28215 6.2402 3.28215 6.56742 3.60937L10.9998 8.04507L15.4355 3.60937C15.7627 3.28215 16.2949 3.28215 16.6155 3.60937L18.3904 5.38101C18.7177 5.70823 18.7177 6.24038 18.3937 6.5676L13.958 11L18.3904 15.4357C18.7177 15.7629 18.7177 16.2918 18.3904 16.619Z" fill="#A80000"/>
</svg>
