<svg width="100" height="88" viewBox="0 0 100 88" fill="none" xmlns="http://www.w3.org/2000/svg">
<path d="M99.9795 8.30332C99.9795 10.9506 97.8247 13.1053 95.1775 13.1053H29.0991C26.4519 13.1053 24.2971 10.9506 24.2971 8.30332C24.2971 5.65608 26.4519 3.50135 29.0991 3.50135H95.198C97.8453 3.52187 99.9795 5.65608 99.9795 8.30332ZM95.198 27.306H29.0991C26.4519 27.306 24.2971 29.4607 24.2971 32.108C24.2971 34.7552 26.4519 36.9099 29.0991 36.9099H95.198C97.8453 36.9099 100 34.7552 100 32.108C99.9795 29.4607 97.8453 27.306 95.198 27.306ZM95.198 51.1106H29.0991C26.4519 51.1106 24.2971 53.2654 24.2971 55.9126C24.2971 58.5598 26.4519 60.7146 29.0991 60.7146H95.198C97.8453 60.7146 100 58.5598 100 55.9126C99.9795 53.2654 97.8453 51.1106 95.198 51.1106ZM95.198 74.9153H29.0991C26.4519 74.9153 24.2971 77.07 24.2971 79.7172C24.2971 82.3645 26.4519 84.5192 29.0991 84.5192H95.198C97.8453 84.5192 100 82.3645 100 79.7172C99.9795 77.07 97.8453 74.9153 95.198 74.9153ZM7.98276 0.320557C3.5707 0.320557 0 3.89125 0 8.30332C0 12.7154 3.5707 16.3066 7.98276 16.3066C12.3948 16.3066 15.9655 12.7154 15.9655 8.30332C15.9655 3.89125 12.3948 0.320557 7.98276 0.320557ZM7.98276 24.1252C3.5707 24.1252 0 27.6959 0 32.108C0 36.52 3.5707 40.0907 7.98276 40.0907C12.3948 40.0907 15.9655 36.52 15.9655 32.108C15.9655 27.6959 12.3948 24.1252 7.98276 24.1252ZM7.98276 47.9298C3.5707 47.9298 0 51.5005 0 55.9126C0 60.3247 3.5707 63.8954 7.98276 63.8954C12.3948 63.8954 15.9655 60.3247 15.9655 55.9126C15.9655 51.5005 12.3948 47.9298 7.98276 47.9298ZM7.98276 71.714C3.5707 71.714 0 75.2847 0 79.6967C0 84.1088 3.5707 87.6795 7.98276 87.6795C12.3948 87.6795 15.9655 84.1088 15.9655 79.6967C15.9655 75.3052 12.3948 71.714 7.98276 71.714Z" fill="#494949"/>
</svg>
