<svg width="18" height="15" viewBox="0 0 18 15" fill="none" xmlns="http://www.w3.org/2000/svg">
<path d="M17.7273 7.16419H15.562V4.89898C15.562 4.70681 15.4095 4.55102 15.2211 4.55102H14.4515V0.463954C14.4515 0.207712 14.248 0 13.997 0H0.454545C0.2035 0 0 0.207712 0 0.463954V9.33392C0 9.59016 0.2035 9.79787 0.454545 9.79787H5.15759C5.06714 10.3284 4.87264 11.2049 4.48118 12.0749C4.41655 12.2186 4.42805 12.3859 4.51164 12.519C4.59523 12.652 4.73941 12.7325 4.89427 12.7325H8.10009V13.9514C8.10009 14.1436 8.25268 14.2994 8.441 14.2994H13.349V14.7216C13.349 14.8753 13.4711 15 13.6217 15H17.7273C17.8779 15 18 14.8753 18 14.7216V7.44256C18 7.28881 17.8779 7.16419 17.7273 7.16419ZM8.10009 4.89898V8.87001H0.909091V0.927908H13.5425V4.55097H8.441C8.25273 4.55102 8.10009 4.70677 8.10009 4.89898ZM13.349 13.6035H8.78191V13.1994H11.4902V13.2321C11.4902 13.4243 11.6428 13.58 11.8311 13.58C12.0195 13.58 12.172 13.4243 12.172 13.2321V13.1994H13.349V13.6035V13.6035ZM13.349 7.44256V12.5035H8.78191V5.24695H14.8802V7.16419H13.6217C13.471 7.16419 13.349 7.28881 13.349 7.44256ZM17.4545 14.4433H13.8944V14.1155H15.4018V14.1432C15.4018 14.2969 15.5239 14.4215 15.6745 14.4215C15.8251 14.4215 15.9472 14.2969 15.9472 14.1432V14.1155H17.4545V14.4433ZM17.4545 13.5587H13.8944V8.60546H17.4545V13.5587ZM17.4545 8.04872H13.8944V7.72093H17.4545V8.04872Z" fill="#494949"/>
</svg>
