<svg width="22" height="39" viewBox="0 0 22 39" fill="none" xmlns="http://www.w3.org/2000/svg">
<path d="M19.1728 0H2.82716C1.26281 0 0 1.26847 0 2.82999V36.0225C0 37.5826 1.26281 38.8497 2.82716 38.8497H19.1728C20.7344 38.8497 22 37.5826 22 36.0225V2.82999C22 1.26847 20.7344 0 19.1728 0ZM6.96667 1.71866H15.0362C15.24 1.71866 15.4057 2.02304 15.4057 2.39961C15.4057 2.77619 15.24 3.08198 15.0362 3.08198H6.96667C6.76139 3.08198 6.59859 2.77619 6.59859 2.39961C6.59859 2.02304 6.76139 1.71866 6.96667 1.71866ZM11.0014 36.0565C10.0062 36.0565 9.1964 35.2467 9.1964 34.2501C9.1964 33.2534 10.0062 32.4465 11.0014 32.4465C11.9938 32.4465 12.8036 33.2534 12.8036 34.2501C12.8036 35.2467 11.9938 36.0565 11.0014 36.0565ZM19.8821 29.8713H2.1193V4.77516H19.8821V29.8713Z" fill="black"/>
</svg>
