<svg width="29" height="29" viewBox="0 0 29 29" fill="none" xmlns="http://www.w3.org/2000/svg">
<g clip-path="url(#clip0)">
<path d="M1.23621 15.3359C0.912485 15.0124 0.944548 14.8117 0.954999 14.7457C1.01438 14.3721 1.54996 14.0227 1.73165 13.9303C1.96631 13.813 2.06155 13.5275 1.94422 13.2928C1.82666 13.0579 1.54093 12.9634 1.30675 13.0805C1.19037 13.1387 0.16623 13.6752 0.0175495 14.592C-0.0377901 14.9328 0.0120868 15.4551 0.564533 16.0076L5.36103 20.8041L6.03295 20.1324L1.23621 15.3359Z" fill="#2C71C1"/>
<path d="M7.27028 9.30127C6.71807 8.74906 6.19603 8.69847 5.85472 8.75404C4.93794 8.90273 4.40141 9.92734 4.34322 10.0435C4.22612 10.2784 4.32113 10.5636 4.55579 10.681C4.79045 10.798 5.07593 10.7033 5.19326 10.4684C5.26736 10.3202 5.62244 9.7542 6.00721 9.69173C6.07371 9.68104 6.27464 9.64898 6.59884 9.97294L11.3956 14.7697L12.0668 14.0978L7.27028 9.30127Z" fill="#2C71C1"/>
<path d="M24.3053 8.06051L21.734 5.48924C19.7992 3.55425 16.6515 3.55449 14.717 5.48924C13.7782 6.42811 13.2468 7.66102 13.2212 8.96162C13.1948 10.2829 13.696 11.526 14.6315 12.4618L19.7377 17.5678C20.4189 18.2489 20.8094 19.1436 20.8365 20.0875C20.8635 21.0311 20.518 21.9113 19.8629 22.5664C18.52 23.909 16.2782 23.8523 14.8657 22.44L12.5448 20.1193C12.2664 19.841 11.8154 19.841 11.537 20.1193C11.2587 20.3977 11.2587 20.8487 11.537 21.1268L13.858 23.4478C14.8652 24.4553 16.181 24.9619 17.4804 24.9619C18.7193 24.9619 19.9437 24.5009 20.8699 23.5744C21.8053 22.6393 22.299 21.3867 22.2603 20.0469C22.2228 18.738 21.6844 17.4998 20.7448 16.5605L15.639 11.4543C14.9802 10.7954 14.6272 9.91997 14.6458 8.98965C14.6643 8.05933 15.0472 7.17413 15.7245 6.49675C17.1033 5.11801 19.3473 5.11801 20.7265 6.49675L23.2978 9.06803C23.5761 9.34639 24.0269 9.34639 24.3053 9.06803C24.5836 8.7899 24.5836 8.33858 24.3053 8.06051Z" fill="#2C71C1"/>
<path d="M12.3898 14.0848C12.1117 13.8064 11.6604 13.8064 11.3823 14.0848C11.104 14.3629 11.104 14.8142 11.3823 15.0923C12.0492 15.7595 12.4423 16.6905 12.4608 17.6467C12.4794 18.6172 12.1267 19.5147 11.4673 20.1738C10.8047 20.8362 9.89504 21.1942 8.92006 21.1825C7.95388 21.1709 7.01904 20.7833 6.3552 20.1194C6.07708 19.8411 5.62581 19.8411 5.34769 20.1194C5.06933 20.3976 5.06933 20.8488 5.34769 21.127C6.28585 22.0651 7.54845 22.591 8.90272 22.6074C8.92458 22.6076 8.94619 22.6078 8.96804 22.6078C10.3107 22.6078 11.5538 22.1026 12.4751 21.1813C13.4109 20.2458 13.9118 18.9806 13.8857 17.6194C13.8598 16.2787 13.3287 15.0234 12.3898 14.0848Z" fill="#2C71C1"/>
<path d="M25.8739 7.51025C24.1501 7.51025 22.7478 8.91274 22.7478 10.6366C22.7478 12.3602 24.1501 13.7624 25.8739 13.7624C27.5968 13.7624 28.9993 12.3604 29 10.6366C29 8.91274 27.5977 7.51025 25.8739 7.51025ZM25.8739 12.3373C24.936 12.3373 24.1729 11.5742 24.1729 10.6365C24.1729 9.69837 24.936 8.93525 25.8739 8.93525C26.8118 8.93525 27.5749 9.69837 27.5749 10.6363C27.5747 11.5742 26.8116 12.3373 25.8739 12.3373Z" fill="#2C71C1"/>
<path d="M25.8743 11.3475C26.2673 11.3475 26.5859 11.0289 26.5859 10.636C26.5859 10.243 26.2673 9.92438 25.8743 9.92438C25.4813 9.92438 25.1627 10.243 25.1627 10.636C25.1627 11.0289 25.4813 11.3475 25.8743 11.3475Z" fill="#2C71C1"/>
<path d="M2.21495 13.736C2.51399 13.437 2.54857 12.9867 2.29221 12.7304C2.03584 12.474 1.5856 12.5086 1.28656 12.8076C0.987531 13.1066 0.952944 13.5569 1.20931 13.8133C1.46568 14.0696 1.91592 14.035 2.21495 13.736Z" fill="#2C71C1"/>
<path d="M4.84561 11.1078C5.14474 10.8087 5.1794 10.3583 4.92303 10.102C4.66667 9.84561 4.21635 9.88027 3.91723 10.1794C3.6181 10.4785 3.58344 10.9288 3.8398 11.1852C4.09617 11.4416 4.54649 11.4069 4.84561 11.1078Z" fill="#2C71C1"/>
</g>
<defs>
<clipPath id="clip0">
<rect width="29" height="29" fill="white"/>
</clipPath>
</defs>
</svg>
