<svg width="14" height="14" viewBox="0 0 14 14" fill="none" xmlns="http://www.w3.org/2000/svg">
<path d="M12.7059 1.91548C12.6497 1.79492 12.5382 1.70827 12.4067 1.68454C12.3832 1.68028 12.3593 1.67841 12.3352 1.67841C12.2262 1.67841 12.1245 1.72085 12.0473 1.79752L10.9413 2.90373L10.1599 2.84383L10.0996 2.06206L11.2051 0.956234C11.2996 0.862311 11.342 0.727924 11.3183 0.595615C11.2946 0.464138 11.2079 0.352962 11.0869 0.297807C10.6601 0.103069 10.186 0 9.71663 0C8.84105 0 8.01782 0.340767 7.3983 0.959871C6.49875 1.85991 6.2026 3.15088 6.61567 4.34617L0.359534 10.6019C-0.115517 11.0771 -0.120609 11.846 0.349037 12.3157L0.686894 12.6544C0.912501 12.8797 1.21374 13.0041 1.53486 13.0041C1.86181 13.0041 2.16945 12.8762 2.40143 12.6444L8.65778 6.38762C9.00104 6.50544 9.3601 6.56476 9.72585 6.56476C10.6013 6.56476 11.4249 6.22357 12.0444 5.60447C13.0076 4.64075 13.2739 3.1583 12.7059 1.91548Z" fill="#494949"/>
</svg>
