<svg width="11" height="15" viewBox="0 0 11 15" fill="none" xmlns="http://www.w3.org/2000/svg">
<path d="M10.9404 7.74347C10.9404 9.00323 10.7178 10.1077 10.2724 11.0569C9.82713 12.0062 9.18846 12.7386 8.35643 13.2542C7.53026 13.7698 6.58104 14.0276 5.50877 14.0276C4.44823 14.0276 3.50194 13.7728 2.66991 13.263C1.83788 12.7532 1.19335 12.0267 0.736314 11.0833C0.279283 10.1341 0.0478373 9.04425 0.0419779 7.81378V7.18097C0.0419779 5.9212 0.267564 4.81378 0.718736 3.8587C1.17577 2.89777 1.81737 2.16241 2.64354 1.65265C3.47557 1.13702 4.42479 0.879211 5.4912 0.879211C6.5576 0.879211 7.50389 1.13702 8.33006 1.65265C9.1621 2.16241 9.8037 2.89777 10.2549 3.8587C10.7119 4.81378 10.9404 5.91827 10.9404 7.17218V7.74347ZM8.26854 7.16339C8.26854 5.82159 8.02831 4.80206 7.54784 4.1048C7.06737 3.40753 6.38182 3.0589 5.4912 3.0589C4.60643 3.0589 3.92381 3.4046 3.44335 4.09601C2.96288 4.78156 2.71971 5.78937 2.71385 7.11945V7.74347C2.71385 9.05011 2.95409 10.0638 3.43456 10.7845C3.91502 11.5052 4.60643 11.8655 5.50877 11.8655C6.39354 11.8655 7.07323 11.5198 7.54784 10.8284C8.02245 10.1312 8.26268 9.11749 8.26854 7.78741V7.16339Z" fill="#2564AC"/>
</svg>
