<svg width="18" height="18" viewBox="0 0 18 18" fill="none" xmlns="http://www.w3.org/2000/svg">
<rect width="18" height="18" rx="2" fill="#C4C4C4"/>
<rect x="1.33331" y="1.33331" width="15.3333" height="15.3333" rx="2" fill="#DADADB"/>
<path d="M13.2314 8.58234C13.2314 9.56215 13.0582 10.4212 12.7119 11.1595C12.3655 11.8978 11.8688 12.4674 11.2217 12.8685C10.5791 13.2695 9.8408 13.47 9.00682 13.47C8.18195 13.47 7.44594 13.2718 6.79881 12.8753C6.15167 12.4788 5.65037 11.9137 5.2949 11.18C4.93943 10.4417 4.75942 9.59406 4.75486 8.63702V8.14484C4.75486 7.16502 4.93032 6.30369 5.28123 5.56085C5.6367 4.81346 6.13572 4.24152 6.7783 3.84503C7.42544 3.44399 8.16372 3.24347 8.99314 3.24347C9.82257 3.24347 10.5586 3.44399 11.2012 3.84503C11.8483 4.24152 12.3473 4.81346 12.6982 5.56085C13.0537 6.30369 13.2314 7.16274 13.2314 8.138V8.58234ZM11.1533 8.13116C11.1533 7.08754 10.9665 6.29458 10.5928 5.75226C10.2191 5.20994 9.68585 4.93878 8.99314 4.93878C8.30499 4.93878 7.77407 5.20766 7.40037 5.74542C7.02667 6.27863 6.83755 7.06248 6.83299 8.09698V8.58234C6.83299 9.59861 7.01984 10.387 7.39353 10.9476C7.76723 11.5081 8.30499 11.7884 9.00682 11.7884C9.69497 11.7884 10.2236 11.5195 10.5928 10.9818C10.9619 10.4394 11.1487 9.65102 11.1533 8.61652V8.13116Z" fill="#2564AC"/>
</svg>
