<svg width="15" height="15" viewBox="0 0 15 15" fill="none" xmlns="http://www.w3.org/2000/svg">
<path d="M8.80956 2.19757H8.96776C9.96971 2.19757 10.875 2.42023 11.6836 2.86554C12.498 3.30499 13.1308 3.93195 13.582 4.7464C14.0332 5.56085 14.2588 6.48663 14.2588 7.52374C14.2588 9.0589 13.7666 10.3128 12.7822 11.2855C11.8037 12.2581 10.4795 12.7444 8.80956 12.7444V14.3792H6.26952V12.7444H6.10252C5.08885 12.7444 4.17479 12.5276 3.36034 12.0941C2.54588 11.6546 1.91307 11.0394 1.4619 10.2484C1.01659 9.45734 0.793931 8.55499 0.793931 7.54132C0.793931 6.51593 1.01659 5.59894 1.4619 4.79034C1.90721 3.98175 2.53124 3.35187 3.33397 2.9007C4.1367 2.44366 5.03319 2.20929 6.02342 2.19757H6.26952V0.527649H8.80956V2.19757ZM6.10252 4.38605C5.22948 4.38605 4.541 4.66144 4.0371 5.21222C3.53905 5.763 3.29002 6.53937 3.29002 7.54132C3.29002 8.47882 3.53905 9.2171 4.0371 9.75616C4.53514 10.2894 5.23534 10.556 6.13768 10.556H6.26952V4.38605H6.10252ZM8.80956 4.38605V10.556H8.98534C9.84667 10.556 10.5234 10.2864 11.0156 9.74738C11.5137 9.20245 11.7627 8.46124 11.7627 7.52374C11.7627 6.54523 11.5195 5.77765 11.0332 5.22101C10.5469 4.66437 9.8496 4.38605 8.94139 4.38605H8.80956Z" fill="#2564AC"/>
</svg>
