<svg width="18" height="18" viewBox="0 0 18 18" fill="none" xmlns="http://www.w3.org/2000/svg">
<rect width="18" height="18" rx="2" fill="#C4C4C4"/>
<rect x="1.33331" y="1.33331" width="15.3333" height="15.3333" rx="2" fill="#DADADB"/>
<path d="M10.0185 4.26886H10.1416C10.9209 4.26886 11.625 4.44204 12.2539 4.78839C12.8873 5.13019 13.3795 5.61782 13.7304 6.25128C14.0814 6.88475 14.2568 7.6048 14.2568 8.41144C14.2568 9.60545 13.874 10.5807 13.1084 11.3372C12.3473 12.0937 11.3174 12.472 10.0185 12.472V13.7435H8.04295V12.472H7.91307C7.12465 12.472 6.41372 12.3034 5.78025 11.9661C5.14679 11.6243 4.6546 11.1458 4.30369 10.5306C3.95734 9.91534 3.78416 9.21352 3.78416 8.42511C3.78416 7.62758 3.95734 6.91437 4.30369 6.28546C4.65005 5.65656 5.1354 5.16665 5.75975 4.81573C6.38409 4.46027 7.08136 4.27797 7.85154 4.26886H8.04295V2.97003H10.0185V4.26886ZM7.91307 5.97101C7.23403 5.97101 6.69855 6.1852 6.30662 6.61359C5.91925 7.04197 5.72557 7.64581 5.72557 8.42511C5.72557 9.15428 5.91925 9.7285 6.30662 10.1478C6.69399 10.5625 7.23859 10.7698 7.94041 10.7698H8.04295V5.97101H7.91307ZM10.0185 5.97101V10.7698H10.1553C10.8252 10.7698 11.3515 10.5602 11.7344 10.1409C12.1217 9.7171 12.3154 9.1406 12.3154 8.41144C12.3154 7.65037 12.1263 7.05337 11.748 6.62042C11.3698 6.18748 10.8275 5.97101 10.1211 5.97101H10.0185Z" fill="#2564AC"/>
</svg>
