<svg width="1193" height="580" viewBox="0 0 1193 580" fill="none" xmlns="http://www.w3.org/2000/svg">
<path d="M0 0H1193V575H0V0Z" fill="#F9F9F9"/>
<mask id="mask0" mask-type="alpha" maskUnits="userSpaceOnUse" x="0" y="0" width="1193" height="580">
<rect width="1193" height="580" fill="#C4C4C4"/>
</mask>
<g mask="url(#mask0)">
<g filter="url(#filter0_f)">
<path d="M-94.6541 674.027C-137.23 580.236 -159.47 388.073 -127.498 336.129C-90.4156 269.082 56.8756 232.941 119.473 267.563C195.583 320.317 244.437 422.42 262.047 542.255C279.657 662.089 65.0408 869.608 -94.6541 674.027Z" fill="#EBECF7" fill-opacity="0.41"/>
</g>
<g filter="url(#filter1_f)">
<path d="M589.523 -195.599C688.223 -166.145 847.781 -56.7704 865.976 1.44782C892.208 73.4351 822.777 208.269 755.567 232.761C665.808 255.543 556.715 225.366 454.758 159.982C352.801 94.5977 337.151 -203.528 589.523 -195.599Z" fill="#EBECF6" fill-opacity="0.41"/>
</g>
<g filter="url(#filter2_f)">
<path d="M1281.32 625.667C1219.85 708.318 1062.46 820.785 1001.53 817.947C924.913 817.947 822 706.549 822 635.015C831.327 542.881 897.03 450.713 993.371 377.304C1089.71 303.895 1375.18 391.263 1281.32 625.667Z" fill="#EBECF6" fill-opacity="0.41"/>
</g>
<rect width="1193" height="80" fill="#F25353"/>
</g>
<path d="M104.312 172.969H91.9844L89.6406 180H82.1641L94.8672 145.875H101.383L114.156 180H106.68L104.312 172.969ZM93.8828 167.273H102.414L98.125 154.5L93.8828 167.273ZM117.25 174.539C118.781 172.914 119.82 171.305 120.367 169.711C120.914 168.117 121.219 165.859 121.281 162.938L121.469 154.641H140.125V174.539H143.781V187.617H137.008V180H121.984V187.617H115.07V174.539H117.25ZM125.242 174.539H133.375V160.242H128.102L128.055 163.289C127.914 167.945 126.977 171.695 125.242 174.539ZM162.25 172.008L168.883 154.641H177.367V180H170.594V164.438L164.523 180H159.977L154.023 164.695V180H147.25V154.641H155.664L162.25 172.008ZM198.555 154.641H205.328V180H198.555V164.344L190.07 180H183.273V154.641H190.07V170.273L198.555 154.641ZM232.492 180H225.695V170.25H217.281V180H210.508V154.641H217.281V164.812H225.695V154.641H232.492V180ZM253.023 154.641H259.797V180H253.023V164.344L244.539 180H237.742V154.641H244.539V170.273L253.023 154.641ZM275.523 175.008C276.773 175.008 277.789 174.664 278.57 173.977C279.352 173.289 279.758 172.375 279.789 171.234H286.141C286.125 172.953 285.656 174.531 284.734 175.969C283.812 177.391 282.547 178.5 280.938 179.297C279.344 180.078 277.578 180.469 275.641 180.469C272.016 180.469 269.156 179.32 267.062 177.023C264.969 174.711 263.922 171.523 263.922 167.461V167.016C263.922 163.109 264.961 159.992 267.039 157.664C269.117 155.336 271.969 154.172 275.594 154.172C278.766 154.172 281.305 155.078 283.211 156.891C285.133 158.688 286.109 161.086 286.141 164.086H279.789C279.758 162.773 279.352 161.711 278.57 160.898C277.789 160.07 276.758 159.656 275.477 159.656C273.898 159.656 272.703 160.234 271.891 161.391C271.094 162.531 270.695 164.391 270.695 166.969V167.672C270.695 170.281 271.094 172.156 271.891 173.297C272.688 174.438 273.898 175.008 275.523 175.008ZM311.055 160.078H302.922V180H296.125V160.078H288.133V154.641H311.055V160.078ZM337.305 167.555C337.305 171.461 336.414 174.594 334.633 176.953C332.867 179.297 330.477 180.469 327.461 180.469C324.898 180.469 322.828 179.578 321.25 177.797V189.75H314.477V154.641H320.758L320.992 157.125C322.633 155.156 324.773 154.172 327.414 154.172C330.539 154.172 332.969 155.328 334.703 157.641C336.438 159.953 337.305 163.141 337.305 167.203V167.555ZM330.531 167.062C330.531 164.703 330.109 162.883 329.266 161.602C328.438 160.32 327.227 159.68 325.633 159.68C323.508 159.68 322.047 160.492 321.25 162.117V172.5C322.078 174.172 323.555 175.008 325.68 175.008C328.914 175.008 330.531 172.359 330.531 167.062ZM356.219 180C355.906 179.391 355.68 178.633 355.539 177.727C353.898 179.555 351.766 180.469 349.141 180.469C346.656 180.469 344.594 179.75 342.953 178.312C341.328 176.875 340.516 175.062 340.516 172.875C340.516 170.188 341.508 168.125 343.492 166.688C345.492 165.25 348.375 164.523 352.141 164.508H355.258V163.055C355.258 161.883 354.953 160.945 354.344 160.242C353.75 159.539 352.805 159.188 351.508 159.188C350.367 159.188 349.469 159.461 348.812 160.008C348.172 160.555 347.852 161.305 347.852 162.258H341.078C341.078 160.789 341.531 159.43 342.438 158.18C343.344 156.93 344.625 155.953 346.281 155.25C347.938 154.531 349.797 154.172 351.859 154.172C354.984 154.172 357.461 154.961 359.289 156.539C361.133 158.102 362.055 160.305 362.055 163.148V174.141C362.07 176.547 362.406 178.367 363.062 179.602V180H356.219ZM350.617 175.289C351.617 175.289 352.539 175.07 353.383 174.633C354.227 174.18 354.852 173.578 355.258 172.828V168.469H352.727C349.336 168.469 347.531 169.641 347.312 171.984L347.289 172.383C347.289 173.227 347.586 173.922 348.18 174.469C348.773 175.016 349.586 175.289 350.617 175.289ZM367.258 154.641H374.031V174.539H382.516V154.641H389.312V174.586H393.109L392.641 187.523H386.336V180H367.258V154.641ZM411.789 154.641H418.562V180H411.789V164.344L403.305 180H396.508V154.641H403.305V170.273L411.789 154.641ZM444.883 154.641V180H438.133V171.234H433.844L428.969 180H422.102L427.633 170.086C426.117 169.383 424.945 168.43 424.117 167.227C423.305 166.023 422.898 164.656 422.898 163.125C422.898 160.672 423.844 158.664 425.734 157.102C427.641 155.523 430.188 154.703 433.375 154.641H444.883ZM433.492 166.5H438.133V160.078H433.727C432.523 160.078 431.547 160.398 430.797 161.039C430.047 161.664 429.672 162.43 429.672 163.336C429.672 164.242 430.031 164.992 430.75 165.586C431.469 166.18 432.383 166.484 433.492 166.5Z" fill="#DE5F57"/>
<path d="M107.312 207.57H92.0781V214.18H97.5625C101.578 214.18 104.758 215.156 107.102 217.109C109.461 219.047 110.641 221.664 110.641 224.961C110.641 228.273 109.469 230.938 107.125 232.953C104.797 234.953 101.695 235.969 97.8203 236H84.9766V201.875H107.312V207.57ZM92.0781 219.852V230.352H97.6797C99.4766 230.352 100.906 229.859 101.969 228.875C103.047 227.891 103.586 226.57 103.586 224.914C103.586 223.367 103.07 222.148 102.039 221.258C101.023 220.352 99.625 219.883 97.8438 219.852H92.0781ZM129.391 236C129.078 235.391 128.852 234.633 128.711 233.727C127.07 235.555 124.938 236.469 122.312 236.469C119.828 236.469 117.766 235.75 116.125 234.312C114.5 232.875 113.688 231.062 113.688 228.875C113.688 226.188 114.68 224.125 116.664 222.688C118.664 221.25 121.547 220.523 125.312 220.508H128.43V219.055C128.43 217.883 128.125 216.945 127.516 216.242C126.922 215.539 125.977 215.188 124.68 215.188C123.539 215.188 122.641 215.461 121.984 216.008C121.344 216.555 121.023 217.305 121.023 218.258H114.25C114.25 216.789 114.703 215.43 115.609 214.18C116.516 212.93 117.797 211.953 119.453 211.25C121.109 210.531 122.969 210.172 125.031 210.172C128.156 210.172 130.633 210.961 132.461 212.539C134.305 214.102 135.227 216.305 135.227 219.148V230.141C135.242 232.547 135.578 234.367 136.234 235.602V236H129.391ZM123.789 231.289C124.789 231.289 125.711 231.07 126.555 230.633C127.398 230.18 128.023 229.578 128.43 228.828V224.469H125.898C122.508 224.469 120.703 225.641 120.484 227.984L120.461 228.383C120.461 229.227 120.758 229.922 121.352 230.469C121.945 231.016 122.758 231.289 123.789 231.289ZM162.484 210.641V236H155.711V216.125H149.734L149.312 223.953C149.047 228.125 148.227 231.164 146.852 233.07C145.477 234.977 143.43 235.953 140.711 236H138.414L138.344 230.492L139.188 230.422C140.406 230.328 141.297 229.609 141.859 228.266C142.422 226.922 142.773 224.633 142.914 221.398L143.383 210.641H162.484ZM182.406 236C182.094 235.391 181.867 234.633 181.727 233.727C180.086 235.555 177.953 236.469 175.328 236.469C172.844 236.469 170.781 235.75 169.141 234.312C167.516 232.875 166.703 231.062 166.703 228.875C166.703 226.188 167.695 224.125 169.68 222.688C171.68 221.25 174.562 220.523 178.328 220.508H181.445V219.055C181.445 217.883 181.141 216.945 180.531 216.242C179.938 215.539 178.992 215.188 177.695 215.188C176.555 215.188 175.656 215.461 175 216.008C174.359 216.555 174.039 217.305 174.039 218.258H167.266C167.266 216.789 167.719 215.43 168.625 214.18C169.531 212.93 170.812 211.953 172.469 211.25C174.125 210.531 175.984 210.172 178.047 210.172C181.172 210.172 183.648 210.961 185.477 212.539C187.32 214.102 188.242 216.305 188.242 219.148V230.141C188.258 232.547 188.594 234.367 189.25 235.602V236H182.406ZM176.805 231.289C177.805 231.289 178.727 231.07 179.57 230.633C180.414 230.18 181.039 229.578 181.445 228.828V224.469H178.914C175.523 224.469 173.719 225.641 173.5 227.984L173.477 228.383C173.477 229.227 173.773 229.922 174.367 230.469C174.961 231.016 175.773 231.289 176.805 231.289ZM203.383 226.648H200.664V236H193.891V210.641H200.664V220.18H203.078L208.609 210.641H217.164L208.867 222.711L217.938 236H208.914L203.383 226.648ZM218.078 223.086C218.078 220.57 218.562 218.328 219.531 216.359C220.5 214.391 221.891 212.867 223.703 211.789C225.531 210.711 227.648 210.172 230.055 210.172C233.477 210.172 236.266 211.219 238.422 213.312C240.594 215.406 241.805 218.25 242.055 221.844L242.102 223.578C242.102 227.469 241.016 230.594 238.844 232.953C236.672 235.297 233.758 236.469 230.102 236.469C226.445 236.469 223.523 235.297 221.336 232.953C219.164 230.609 218.078 227.422 218.078 223.391V223.086ZM224.852 223.578C224.852 225.984 225.305 227.828 226.211 229.109C227.117 230.375 228.414 231.008 230.102 231.008C231.742 231.008 233.023 230.383 233.945 229.133C234.867 227.867 235.328 225.852 235.328 223.086C235.328 220.727 234.867 218.898 233.945 217.602C233.023 216.305 231.727 215.656 230.055 215.656C228.398 215.656 227.117 216.305 226.211 217.602C225.305 218.883 224.852 220.875 224.852 223.578ZM246.719 236V210.641H257.312C260.766 210.641 263.414 211.25 265.258 212.469C267.102 213.688 268.023 215.438 268.023 217.719C268.023 218.891 267.633 219.945 266.852 220.883C266.086 221.805 264.961 222.516 263.477 223.016C265.289 223.359 266.711 224.039 267.742 225.055C268.789 226.055 269.312 227.289 269.312 228.758C269.312 231.117 268.422 232.914 266.641 234.148C264.875 235.383 262.305 236 258.93 236H246.719ZM253.492 225.477V230.586H258.953C261.344 230.586 262.539 229.75 262.539 228.078C262.539 226.375 261.398 225.508 259.117 225.477H253.492ZM253.492 220.93H257.688C260.062 220.898 261.25 220.133 261.25 218.633C261.25 217.711 260.922 217.055 260.266 216.664C259.625 216.273 258.641 216.078 257.312 216.078H253.492V220.93ZM284.008 231.008C285.258 231.008 286.273 230.664 287.055 229.977C287.836 229.289 288.242 228.375 288.273 227.234H294.625C294.609 228.953 294.141 230.531 293.219 231.969C292.297 233.391 291.031 234.5 289.422 235.297C287.828 236.078 286.062 236.469 284.125 236.469C280.5 236.469 277.641 235.32 275.547 233.023C273.453 230.711 272.406 227.523 272.406 223.461V223.016C272.406 219.109 273.445 215.992 275.523 213.664C277.602 211.336 280.453 210.172 284.078 210.172C287.25 210.172 289.789 211.078 291.695 212.891C293.617 214.688 294.594 217.086 294.625 220.086H288.273C288.242 218.773 287.836 217.711 287.055 216.898C286.273 216.07 285.242 215.656 283.961 215.656C282.383 215.656 281.188 216.234 280.375 217.391C279.578 218.531 279.18 220.391 279.18 222.969V223.672C279.18 226.281 279.578 228.156 280.375 229.297C281.172 230.438 282.383 231.008 284.008 231.008ZM308.43 226.648H305.711V236H298.938V210.641H305.711V220.18H308.125L313.656 210.641H322.211L313.914 222.711L322.984 236H313.961L308.43 226.648ZM323.125 223.086C323.125 220.57 323.609 218.328 324.578 216.359C325.547 214.391 326.938 212.867 328.75 211.789C330.578 210.711 332.695 210.172 335.102 210.172C338.523 210.172 341.312 211.219 343.469 213.312C345.641 215.406 346.852 218.25 347.102 221.844L347.148 223.578C347.148 227.469 346.062 230.594 343.891 232.953C341.719 235.297 338.805 236.469 335.148 236.469C331.492 236.469 328.57 235.297 326.383 232.953C324.211 230.609 323.125 227.422 323.125 223.391V223.086ZM329.898 223.578C329.898 225.984 330.352 227.828 331.258 229.109C332.164 230.375 333.461 231.008 335.148 231.008C336.789 231.008 338.07 230.383 338.992 229.133C339.914 227.867 340.375 225.852 340.375 223.086C340.375 220.727 339.914 218.898 338.992 217.602C338.07 216.305 336.773 215.656 335.102 215.656C333.445 215.656 332.164 216.305 331.258 217.602C330.352 218.883 329.898 220.875 329.898 223.578ZM366.602 210.641H373.375V236H366.602V220.344L358.117 236H351.32V210.641H358.117V226.273L366.602 210.641ZM370.586 200.352C370.586 202.43 369.836 204.109 368.336 205.391C366.852 206.672 364.898 207.312 362.477 207.312C360.055 207.312 358.094 206.68 356.594 205.414C355.109 204.148 354.367 202.461 354.367 200.352H359.172C359.172 201.336 359.461 202.102 360.039 202.648C360.633 203.18 361.445 203.445 362.477 203.445C363.492 203.445 364.289 203.18 364.867 202.648C365.445 202.102 365.734 201.336 365.734 200.352H370.586ZM407.781 216.125H397.281V236H390.508V210.641H407.781V216.125ZM409.094 223.086C409.094 220.57 409.578 218.328 410.547 216.359C411.516 214.391 412.906 212.867 414.719 211.789C416.547 210.711 418.664 210.172 421.07 210.172C424.492 210.172 427.281 211.219 429.438 213.312C431.609 215.406 432.82 218.25 433.07 221.844L433.117 223.578C433.117 227.469 432.031 230.594 429.859 232.953C427.688 235.297 424.773 236.469 421.117 236.469C417.461 236.469 414.539 235.297 412.352 232.953C410.18 230.609 409.094 227.422 409.094 223.391V223.086ZM415.867 223.578C415.867 225.984 416.32 227.828 417.227 229.109C418.133 230.375 419.43 231.008 421.117 231.008C422.758 231.008 424.039 230.383 424.961 229.133C425.883 227.867 426.344 225.852 426.344 223.086C426.344 220.727 425.883 218.898 424.961 217.602C424.039 216.305 422.742 215.656 421.07 215.656C419.414 215.656 418.133 216.305 417.227 217.602C416.32 218.883 415.867 220.875 415.867 223.578ZM460.117 223.555C460.117 227.461 459.227 230.594 457.445 232.953C455.68 235.297 453.289 236.469 450.273 236.469C447.711 236.469 445.641 235.578 444.062 233.797V245.75H437.289V210.641H443.57L443.805 213.125C445.445 211.156 447.586 210.172 450.227 210.172C453.352 210.172 455.781 211.328 457.516 213.641C459.25 215.953 460.117 219.141 460.117 223.203V223.555ZM453.344 223.062C453.344 220.703 452.922 218.883 452.078 217.602C451.25 216.32 450.039 215.68 448.445 215.68C446.32 215.68 444.859 216.492 444.062 218.117V228.5C444.891 230.172 446.367 231.008 448.492 231.008C451.727 231.008 453.344 228.359 453.344 223.062ZM463.281 223.086C463.281 220.57 463.766 218.328 464.734 216.359C465.703 214.391 467.094 212.867 468.906 211.789C470.734 210.711 472.852 210.172 475.258 210.172C478.68 210.172 481.469 211.219 483.625 213.312C485.797 215.406 487.008 218.25 487.258 221.844L487.305 223.578C487.305 227.469 486.219 230.594 484.047 232.953C481.875 235.297 478.961 236.469 475.305 236.469C471.648 236.469 468.727 235.297 466.539 232.953C464.367 230.609 463.281 227.422 463.281 223.391V223.086ZM470.055 223.578C470.055 225.984 470.508 227.828 471.414 229.109C472.32 230.375 473.617 231.008 475.305 231.008C476.945 231.008 478.227 230.383 479.148 229.133C480.07 227.867 480.531 225.852 480.531 223.086C480.531 220.727 480.07 218.898 479.148 217.602C478.227 216.305 476.93 215.656 475.258 215.656C473.602 215.656 472.32 216.305 471.414 217.602C470.508 218.883 470.055 220.875 470.055 223.578ZM490.141 230.539C491.672 228.914 492.711 227.305 493.258 225.711C493.805 224.117 494.109 221.859 494.172 218.938L494.359 210.641H513.016V230.539H516.672V243.617H509.898V236H494.875V243.617H487.961V230.539H490.141ZM498.133 230.539H506.266V216.242H500.992L500.945 219.289C500.805 223.945 499.867 227.695 498.133 230.539ZM530.664 231.008C531.914 231.008 532.93 230.664 533.711 229.977C534.492 229.289 534.898 228.375 534.93 227.234H541.281C541.266 228.953 540.797 230.531 539.875 231.969C538.953 233.391 537.688 234.5 536.078 235.297C534.484 236.078 532.719 236.469 530.781 236.469C527.156 236.469 524.297 235.32 522.203 233.023C520.109 230.711 519.062 227.523 519.062 223.461V223.016C519.062 219.109 520.102 215.992 522.18 213.664C524.258 211.336 527.109 210.172 530.734 210.172C533.906 210.172 536.445 211.078 538.352 212.891C540.273 214.688 541.25 217.086 541.281 220.086H534.93C534.898 218.773 534.492 217.711 533.711 216.898C532.93 216.07 531.898 215.656 530.617 215.656C529.039 215.656 527.844 216.234 527.031 217.391C526.234 218.531 525.836 220.391 525.836 222.969V223.672C525.836 226.281 526.234 228.156 527.031 229.297C527.828 230.438 529.039 231.008 530.664 231.008ZM555.086 226.648H552.367V236H545.594V210.641H552.367V220.18H554.781L560.312 210.641H568.867L560.57 222.711L569.641 236H560.617L555.086 226.648ZM569.781 223.086C569.781 220.57 570.266 218.328 571.234 216.359C572.203 214.391 573.594 212.867 575.406 211.789C577.234 210.711 579.352 210.172 581.758 210.172C585.18 210.172 587.969 211.219 590.125 213.312C592.297 215.406 593.508 218.25 593.758 221.844L593.805 223.578C593.805 227.469 592.719 230.594 590.547 232.953C588.375 235.297 585.461 236.469 581.805 236.469C578.148 236.469 575.227 235.297 573.039 232.953C570.867 230.609 569.781 227.422 569.781 223.391V223.086ZM576.555 223.578C576.555 225.984 577.008 227.828 577.914 229.109C578.82 230.375 580.117 231.008 581.805 231.008C583.445 231.008 584.727 230.383 585.648 229.133C586.57 227.867 587.031 225.852 587.031 223.086C587.031 220.727 586.57 218.898 585.648 217.602C584.727 216.305 583.43 215.656 581.758 215.656C580.102 215.656 578.82 216.305 577.914 217.602C577.008 218.883 576.555 220.875 576.555 223.578ZM613.258 210.641H620.031V236H613.258V220.344L604.773 236H597.977V210.641H604.773V226.273L613.258 210.641ZM617.242 200.352C617.242 202.43 616.492 204.109 614.992 205.391C613.508 206.672 611.555 207.312 609.133 207.312C606.711 207.312 604.75 206.68 603.25 205.414C601.766 204.148 601.023 202.461 601.023 200.352H605.828C605.828 201.336 606.117 202.102 606.695 202.648C607.289 203.18 608.102 203.445 609.133 203.445C610.148 203.445 610.945 203.18 611.523 202.648C612.102 202.102 612.391 201.336 612.391 200.352H617.242ZM106.656 292H99.8594V272.125H91.375V292H84.6016V266.641H106.656V292ZM110.781 279.086C110.781 276.57 111.266 274.328 112.234 272.359C113.203 270.391 114.594 268.867 116.406 267.789C118.234 266.711 120.352 266.172 122.758 266.172C126.18 266.172 128.969 267.219 131.125 269.312C133.297 271.406 134.508 274.25 134.758 277.844L134.805 279.578C134.805 283.469 133.719 286.594 131.547 288.953C129.375 291.297 126.461 292.469 122.805 292.469C119.148 292.469 116.227 291.297 114.039 288.953C111.867 286.609 110.781 283.422 110.781 279.391V279.086ZM117.555 279.578C117.555 281.984 118.008 283.828 118.914 285.109C119.82 286.375 121.117 287.008 122.805 287.008C124.445 287.008 125.727 286.383 126.648 285.133C127.57 283.867 128.031 281.852 128.031 279.086C128.031 276.727 127.57 274.898 126.648 273.602C125.727 272.305 124.43 271.656 122.758 271.656C121.102 271.656 119.82 272.305 118.914 273.602C118.008 274.883 117.555 276.875 117.555 279.578ZM160.656 266.641V292H153.883V272.125H147.906L147.484 279.953C147.219 284.125 146.398 287.164 145.023 289.07C143.648 290.977 141.602 291.953 138.883 292H136.586L136.516 286.492L137.359 286.422C138.578 286.328 139.469 285.609 140.031 284.266C140.594 282.922 140.945 280.633 141.086 277.398L141.555 266.641H160.656ZM181.164 266.641H187.938V292H181.164V276.344L172.68 292H165.883V266.641H172.68V282.273L181.164 266.641ZM203.055 282.648H200.336V292H193.562V266.641H200.336V276.18H202.75L208.281 266.641H216.836L208.539 278.711L217.609 292H208.586L203.055 282.648ZM242.219 266.641V292H235.445V272.125H229.469L229.047 279.953C228.781 284.125 227.961 287.164 226.586 289.07C225.211 290.977 223.164 291.953 220.445 292H218.148L218.078 286.492L218.922 286.422C220.141 286.328 221.031 285.609 221.594 284.266C222.156 282.922 222.508 280.633 222.648 277.398L223.117 266.641H242.219ZM262.727 266.641H269.5V292H262.727V276.344L254.242 292H247.445V266.641H254.242V282.273L262.727 266.641ZM296.664 292H289.867V282.25H281.453V292H274.68V266.641H281.453V276.812H289.867V266.641H296.664V292ZM317.195 266.641H323.969V292H317.195V276.344L308.711 292H301.914V266.641H308.711V282.273L317.195 266.641ZM339.086 282.648H336.367V292H329.594V266.641H336.367V276.18H338.781L344.312 266.641H352.867L344.57 278.711L353.641 292H344.617L339.086 282.648ZM371.477 266.641H378.25V292H371.477V276.344L362.992 292H356.195V266.641H362.992V282.273L371.477 266.641ZM437.852 282.227H423.859V278.781H437.852V282.227ZM422.805 265.938C422.805 263.438 423.555 261.406 425.055 259.844C426.555 258.281 428.508 257.5 430.914 257.5C433.32 257.5 435.273 258.281 436.773 259.844C438.289 261.391 439.047 263.469 439.047 266.078V267.531C439.047 270 438.305 272.016 436.82 273.578C435.352 275.141 433.398 275.922 430.961 275.922C428.508 275.922 426.531 275.141 425.031 273.578C423.547 272 422.805 269.938 422.805 267.391V265.938ZM426.906 267.531C426.906 269.078 427.266 270.297 427.984 271.188C428.719 272.062 429.711 272.5 430.961 272.5C432.195 272.5 433.164 272.055 433.867 271.164C434.586 270.273 434.945 269.023 434.945 267.414V265.938C434.945 264.406 434.578 263.195 433.844 262.305C433.109 261.414 432.133 260.969 430.914 260.969C429.711 260.969 428.742 261.414 428.008 262.305C427.273 263.195 426.906 264.438 426.906 266.031V267.531ZM419.945 292H412.492L402.602 269.805V292H395.781V257.875H403.234L413.148 280.117V257.875H419.945V292ZM460.258 292H453.484V265.891L445.398 268.398V262.891L459.531 257.828H460.258V292ZM494.336 277.891C494.336 282.609 493.359 286.219 491.406 288.719C489.453 291.219 486.594 292.469 482.828 292.469C479.109 292.469 476.266 291.242 474.297 288.789C472.328 286.336 471.32 282.82 471.273 278.242V271.961C471.273 267.195 472.258 263.578 474.227 261.109C476.211 258.641 479.062 257.406 482.781 257.406C486.5 257.406 489.344 258.633 491.312 261.086C493.281 263.523 494.289 267.031 494.336 271.609V277.891ZM487.562 271C487.562 268.172 487.172 266.117 486.391 264.836C485.625 263.539 484.422 262.891 482.781 262.891C481.188 262.891 480.008 263.508 479.242 264.742C478.492 265.961 478.094 267.875 478.047 270.484V278.781C478.047 281.562 478.422 283.633 479.172 284.992C479.938 286.336 481.156 287.008 482.828 287.008C484.484 287.008 485.68 286.359 486.414 285.062C487.148 283.766 487.531 281.781 487.562 279.109V271ZM521.898 277.891C521.898 282.609 520.922 286.219 518.969 288.719C517.016 291.219 514.156 292.469 510.391 292.469C506.672 292.469 503.828 291.242 501.859 288.789C499.891 286.336 498.883 282.82 498.836 278.242V271.961C498.836 267.195 499.82 263.578 501.789 261.109C503.773 258.641 506.625 257.406 510.344 257.406C514.062 257.406 516.906 258.633 518.875 261.086C520.844 263.523 521.852 267.031 521.898 271.609V277.891ZM515.125 271C515.125 268.172 514.734 266.117 513.953 264.836C513.188 263.539 511.984 262.891 510.344 262.891C508.75 262.891 507.57 263.508 506.805 264.742C506.055 265.961 505.656 267.875 505.609 270.484V278.781C505.609 281.562 505.984 283.633 506.734 284.992C507.5 286.336 508.719 287.008 510.391 287.008C512.047 287.008 513.242 286.359 513.977 285.062C514.711 283.766 515.094 281.781 515.125 279.109V271ZM112.844 404H105.789V375.57H92.125V404H85.0938V369.875H112.844V404ZM141.414 391.555C141.414 395.461 140.523 398.594 138.742 400.953C136.977 403.297 134.586 404.469 131.57 404.469C129.008 404.469 126.938 403.578 125.359 401.797V413.75H118.586V378.641H124.867L125.102 381.125C126.742 379.156 128.883 378.172 131.523 378.172C134.648 378.172 137.078 379.328 138.812 381.641C140.547 383.953 141.414 387.141 141.414 391.203V391.555ZM134.641 391.062C134.641 388.703 134.219 386.883 133.375 385.602C132.547 384.32 131.336 383.68 129.742 383.68C127.617 383.68 126.156 384.492 125.359 386.117V396.5C126.188 398.172 127.664 399.008 129.789 399.008C133.023 399.008 134.641 396.359 134.641 391.062ZM144.578 391.086C144.578 388.57 145.062 386.328 146.031 384.359C147 382.391 148.391 380.867 150.203 379.789C152.031 378.711 154.148 378.172 156.555 378.172C159.977 378.172 162.766 379.219 164.922 381.312C167.094 383.406 168.305 386.25 168.555 389.844L168.602 391.578C168.602 395.469 167.516 398.594 165.344 400.953C163.172 403.297 160.258 404.469 156.602 404.469C152.945 404.469 150.023 403.297 147.836 400.953C145.664 398.609 144.578 395.422 144.578 391.391V391.086ZM151.352 391.578C151.352 393.984 151.805 395.828 152.711 397.109C153.617 398.375 154.914 399.008 156.602 399.008C158.242 399.008 159.523 398.383 160.445 397.133C161.367 395.867 161.828 393.852 161.828 391.086C161.828 388.727 161.367 386.898 160.445 385.602C159.523 384.305 158.227 383.656 156.555 383.656C154.898 383.656 153.617 384.305 152.711 385.602C151.805 386.883 151.352 388.875 151.352 391.578ZM183.32 399.008C184.57 399.008 185.586 398.664 186.367 397.977C187.148 397.289 187.555 396.375 187.586 395.234H193.938C193.922 396.953 193.453 398.531 192.531 399.969C191.609 401.391 190.344 402.5 188.734 403.297C187.141 404.078 185.375 404.469 183.438 404.469C179.812 404.469 176.953 403.32 174.859 401.023C172.766 398.711 171.719 395.523 171.719 391.461V391.016C171.719 387.109 172.758 383.992 174.836 381.664C176.914 379.336 179.766 378.172 183.391 378.172C186.562 378.172 189.102 379.078 191.008 380.891C192.93 382.688 193.906 385.086 193.938 388.086H187.586C187.555 386.773 187.148 385.711 186.367 384.898C185.586 384.07 184.555 383.656 183.273 383.656C181.695 383.656 180.5 384.234 179.688 385.391C178.891 386.531 178.492 388.391 178.492 390.969V391.672C178.492 394.281 178.891 396.156 179.688 397.297C180.484 398.438 181.695 399.008 183.32 399.008ZM213.086 378.641H219.859V404H213.086V388.344L204.602 404H197.805V378.641H204.602V394.273L213.086 378.641ZM246.086 384.078H237.953V404H231.156V384.078H223.164V378.641H246.086V384.078ZM261.906 404V378.641H272.5C275.953 378.641 278.602 379.25 280.445 380.469C282.289 381.688 283.211 383.438 283.211 385.719C283.211 386.891 282.82 387.945 282.039 388.883C281.273 389.805 280.148 390.516 278.664 391.016C280.477 391.359 281.898 392.039 282.93 393.055C283.977 394.055 284.5 395.289 284.5 396.758C284.5 399.117 283.609 400.914 281.828 402.148C280.062 403.383 277.492 404 274.117 404H261.906ZM268.68 393.477V398.586H274.141C276.531 398.586 277.727 397.75 277.727 396.078C277.727 394.375 276.586 393.508 274.305 393.477H268.68ZM268.68 388.93H272.875C275.25 388.898 276.438 388.133 276.438 386.633C276.438 385.711 276.109 385.055 275.453 384.664C274.812 384.273 273.828 384.078 272.5 384.078H268.68V388.93ZM303.344 404C303.031 403.391 302.805 402.633 302.664 401.727C301.023 403.555 298.891 404.469 296.266 404.469C293.781 404.469 291.719 403.75 290.078 402.312C288.453 400.875 287.641 399.062 287.641 396.875C287.641 394.188 288.633 392.125 290.617 390.688C292.617 389.25 295.5 388.523 299.266 388.508H302.383V387.055C302.383 385.883 302.078 384.945 301.469 384.242C300.875 383.539 299.93 383.188 298.633 383.188C297.492 383.188 296.594 383.461 295.938 384.008C295.297 384.555 294.977 385.305 294.977 386.258H288.203C288.203 384.789 288.656 383.43 289.562 382.18C290.469 380.93 291.75 379.953 293.406 379.25C295.062 378.531 296.922 378.172 298.984 378.172C302.109 378.172 304.586 378.961 306.414 380.539C308.258 382.102 309.18 384.305 309.18 387.148V398.141C309.195 400.547 309.531 402.367 310.188 403.602V404H303.344ZM297.742 399.289C298.742 399.289 299.664 399.07 300.508 398.633C301.352 398.18 301.977 397.578 302.383 396.828V392.469H299.852C296.461 392.469 294.656 393.641 294.438 395.984L294.414 396.383C294.414 397.227 294.711 397.922 295.305 398.469C295.898 399.016 296.711 399.289 297.742 399.289ZM324.93 399.008C326.18 399.008 327.195 398.664 327.977 397.977C328.758 397.289 329.164 396.375 329.195 395.234H335.547C335.531 396.953 335.062 398.531 334.141 399.969C333.219 401.391 331.953 402.5 330.344 403.297C328.75 404.078 326.984 404.469 325.047 404.469C321.422 404.469 318.562 403.32 316.469 401.023C314.375 398.711 313.328 395.523 313.328 391.461V391.016C313.328 387.109 314.367 383.992 316.445 381.664C318.523 379.336 321.375 378.172 325 378.172C328.172 378.172 330.711 379.078 332.617 380.891C334.539 382.688 335.516 385.086 335.547 388.086H329.195C329.164 386.773 328.758 385.711 327.977 384.898C327.195 384.07 326.164 383.656 324.883 383.656C323.305 383.656 322.109 384.234 321.297 385.391C320.5 386.531 320.102 388.391 320.102 390.969V391.672C320.102 394.281 320.5 396.156 321.297 397.297C322.094 398.438 323.305 399.008 324.93 399.008ZM350.312 391.086C350.312 388.57 350.797 386.328 351.766 384.359C352.734 382.391 354.125 380.867 355.938 379.789C357.766 378.711 359.883 378.172 362.289 378.172C365.711 378.172 368.5 379.219 370.656 381.312C372.828 383.406 374.039 386.25 374.289 389.844L374.336 391.578C374.336 395.469 373.25 398.594 371.078 400.953C368.906 403.297 365.992 404.469 362.336 404.469C358.68 404.469 355.758 403.297 353.57 400.953C351.398 398.609 350.312 395.422 350.312 391.391V391.086ZM357.086 391.578C357.086 393.984 357.539 395.828 358.445 397.109C359.352 398.375 360.648 399.008 362.336 399.008C363.977 399.008 365.258 398.383 366.18 397.133C367.102 395.867 367.562 393.852 367.562 391.086C367.562 388.727 367.102 386.898 366.18 385.602C365.258 384.305 363.961 383.656 362.289 383.656C360.633 383.656 359.352 384.305 358.445 385.602C357.539 386.883 357.086 388.875 357.086 391.578ZM389.055 399.008C390.305 399.008 391.32 398.664 392.102 397.977C392.883 397.289 393.289 396.375 393.32 395.234H399.672C399.656 396.953 399.188 398.531 398.266 399.969C397.344 401.391 396.078 402.5 394.469 403.297C392.875 404.078 391.109 404.469 389.172 404.469C385.547 404.469 382.688 403.32 380.594 401.023C378.5 398.711 377.453 395.523 377.453 391.461V391.016C377.453 387.109 378.492 383.992 380.57 381.664C382.648 379.336 385.5 378.172 389.125 378.172C392.297 378.172 394.836 379.078 396.742 380.891C398.664 382.688 399.641 385.086 399.672 388.086H393.32C393.289 386.773 392.883 385.711 392.102 384.898C391.32 384.07 390.289 383.656 389.008 383.656C387.43 383.656 386.234 384.234 385.422 385.391C384.625 386.531 384.227 388.391 384.227 390.969V391.672C384.227 394.281 384.625 396.156 385.422 397.297C386.219 398.438 387.43 399.008 389.055 399.008ZM424.586 384.078H416.453V404H409.656V384.078H401.664V378.641H424.586V384.078ZM442.328 404C442.016 403.391 441.789 402.633 441.648 401.727C440.008 403.555 437.875 404.469 435.25 404.469C432.766 404.469 430.703 403.75 429.062 402.312C427.438 400.875 426.625 399.062 426.625 396.875C426.625 394.188 427.617 392.125 429.602 390.688C431.602 389.25 434.484 388.523 438.25 388.508H441.367V387.055C441.367 385.883 441.062 384.945 440.453 384.242C439.859 383.539 438.914 383.188 437.617 383.188C436.477 383.188 435.578 383.461 434.922 384.008C434.281 384.555 433.961 385.305 433.961 386.258H427.188C427.188 384.789 427.641 383.43 428.547 382.18C429.453 380.93 430.734 379.953 432.391 379.25C434.047 378.531 435.906 378.172 437.969 378.172C441.094 378.172 443.57 378.961 445.398 380.539C447.242 382.102 448.164 384.305 448.164 387.148V398.141C448.18 400.547 448.516 402.367 449.172 403.602V404H442.328ZM436.727 399.289C437.727 399.289 438.648 399.07 439.492 398.633C440.336 398.18 440.961 397.578 441.367 396.828V392.469H438.836C435.445 392.469 433.641 393.641 433.422 395.984L433.398 396.383C433.398 397.227 433.695 397.922 434.289 398.469C434.883 399.016 435.695 399.289 436.727 399.289ZM453.812 404V378.641H464.406C467.859 378.641 470.508 379.25 472.352 380.469C474.195 381.688 475.117 383.438 475.117 385.719C475.117 386.891 474.727 387.945 473.945 388.883C473.18 389.805 472.055 390.516 470.57 391.016C472.383 391.359 473.805 392.039 474.836 393.055C475.883 394.055 476.406 395.289 476.406 396.758C476.406 399.117 475.516 400.914 473.734 402.148C471.969 403.383 469.398 404 466.023 404H453.812ZM460.586 393.477V398.586H466.047C468.438 398.586 469.633 397.75 469.633 396.078C469.633 394.375 468.492 393.508 466.211 393.477H460.586ZM460.586 388.93H464.781C467.156 388.898 468.344 388.133 468.344 386.633C468.344 385.711 468.016 385.055 467.359 384.664C466.719 384.273 465.734 384.078 464.406 384.078H460.586V388.93ZM495.25 404C494.938 403.391 494.711 402.633 494.57 401.727C492.93 403.555 490.797 404.469 488.172 404.469C485.688 404.469 483.625 403.75 481.984 402.312C480.359 400.875 479.547 399.062 479.547 396.875C479.547 394.188 480.539 392.125 482.523 390.688C484.523 389.25 487.406 388.523 491.172 388.508H494.289V387.055C494.289 385.883 493.984 384.945 493.375 384.242C492.781 383.539 491.836 383.188 490.539 383.188C489.398 383.188 488.5 383.461 487.844 384.008C487.203 384.555 486.883 385.305 486.883 386.258H480.109C480.109 384.789 480.562 383.43 481.469 382.18C482.375 380.93 483.656 379.953 485.312 379.25C486.969 378.531 488.828 378.172 490.891 378.172C494.016 378.172 496.492 378.961 498.32 380.539C500.164 382.102 501.086 384.305 501.086 387.148V398.141C501.102 400.547 501.438 402.367 502.094 403.602V404H495.25ZM489.648 399.289C490.648 399.289 491.57 399.07 492.414 398.633C493.258 398.18 493.883 397.578 494.289 396.828V392.469H491.758C488.367 392.469 486.562 393.641 486.344 395.984L486.32 396.383C486.32 397.227 486.617 397.922 487.211 398.469C487.805 399.016 488.617 399.289 489.648 399.289ZM526.961 384.078H518.828V404H512.031V384.078H504.039V378.641H526.961V384.078ZM537.625 386.07H542.477C544.664 386.07 546.586 386.438 548.242 387.172C549.898 387.906 551.164 388.961 552.039 390.336C552.93 391.695 553.375 393.281 553.375 395.094C553.375 397.766 552.383 399.922 550.398 401.562C548.43 403.188 545.742 404 542.336 404H530.828V378.641H537.625V386.07ZM537.625 391.508V398.586H542.43C543.773 398.586 544.805 398.273 545.523 397.648C546.242 397.023 546.602 396.172 546.602 395.094C546.602 394 546.25 393.133 545.547 392.492C544.844 391.836 543.805 391.508 542.43 391.508H537.625ZM567.742 399.008C568.992 399.008 570.008 398.664 570.789 397.977C571.57 397.289 571.977 396.375 572.008 395.234H578.359C578.344 396.953 577.875 398.531 576.953 399.969C576.031 401.391 574.766 402.5 573.156 403.297C571.562 404.078 569.797 404.469 567.859 404.469C564.234 404.469 561.375 403.32 559.281 401.023C557.188 398.711 556.141 395.523 556.141 391.461V391.016C556.141 387.109 557.18 383.992 559.258 381.664C561.336 379.336 564.188 378.172 567.812 378.172C570.984 378.172 573.523 379.078 575.43 380.891C577.352 382.688 578.328 385.086 578.359 388.086H572.008C571.977 386.773 571.57 385.711 570.789 384.898C570.008 384.07 568.977 383.656 567.695 383.656C566.117 383.656 564.922 384.234 564.109 385.391C563.312 386.531 562.914 388.391 562.914 390.969V391.672C562.914 394.281 563.312 396.156 564.109 397.297C564.906 398.438 566.117 399.008 567.742 399.008ZM603.367 378.641V404H596.617V395.234H592.328L587.453 404H580.586L586.117 394.086C584.602 393.383 583.43 392.43 582.602 391.227C581.789 390.023 581.383 388.656 581.383 387.125C581.383 384.672 582.328 382.664 584.219 381.102C586.125 379.523 588.672 378.703 591.859 378.641H603.367ZM591.977 390.5H596.617V384.078H592.211C591.008 384.078 590.031 384.398 589.281 385.039C588.531 385.664 588.156 386.43 588.156 387.336C588.156 388.242 588.516 388.992 589.234 389.586C589.953 390.18 590.867 390.484 591.977 390.5ZM84.9531 454.539C86.4844 452.914 87.5234 451.305 88.0703 449.711C88.6172 448.117 88.9219 445.859 88.9844 442.938L89.1719 434.641H107.828V454.539H111.484V467.617H104.711V460H89.6875V467.617H82.7734V454.539H84.9531ZM92.9453 454.539H101.078V440.242H95.8047L95.7578 443.289C95.6172 447.945 94.6797 451.695 92.9453 454.539ZM113.875 447.086C113.875 444.57 114.359 442.328 115.328 440.359C116.297 438.391 117.688 436.867 119.5 435.789C121.328 434.711 123.445 434.172 125.852 434.172C129.273 434.172 132.062 435.219 134.219 437.312C136.391 439.406 137.602 442.25 137.852 445.844L137.898 447.578C137.898 451.469 136.812 454.594 134.641 456.953C132.469 459.297 129.555 460.469 125.898 460.469C122.242 460.469 119.32 459.297 117.133 456.953C114.961 454.609 113.875 451.422 113.875 447.391V447.086ZM120.648 447.578C120.648 449.984 121.102 451.828 122.008 453.109C122.914 454.375 124.211 455.008 125.898 455.008C127.539 455.008 128.82 454.383 129.742 453.133C130.664 451.867 131.125 449.852 131.125 447.086C131.125 444.727 130.664 442.898 129.742 441.602C128.82 440.305 127.523 439.656 125.852 439.656C124.195 439.656 122.914 440.305 122.008 441.602C121.102 442.883 120.648 444.875 120.648 447.578ZM157.516 452.008L164.148 434.641H172.633V460H165.859V444.438L159.789 460H155.242L149.289 444.695V460H142.516V434.641H150.93L157.516 452.008ZM193.234 460C192.922 459.391 192.695 458.633 192.555 457.727C190.914 459.555 188.781 460.469 186.156 460.469C183.672 460.469 181.609 459.75 179.969 458.312C178.344 456.875 177.531 455.062 177.531 452.875C177.531 450.188 178.523 448.125 180.508 446.688C182.508 445.25 185.391 444.523 189.156 444.508H192.273V443.055C192.273 441.883 191.969 440.945 191.359 440.242C190.766 439.539 189.82 439.188 188.523 439.188C187.383 439.188 186.484 439.461 185.828 440.008C185.188 440.555 184.867 441.305 184.867 442.258H178.094C178.094 440.789 178.547 439.43 179.453 438.18C180.359 436.93 181.641 435.953 183.297 435.25C184.953 434.531 186.812 434.172 188.875 434.172C192 434.172 194.477 434.961 196.305 436.539C198.148 438.102 199.07 440.305 199.07 443.148V454.141C199.086 456.547 199.422 458.367 200.078 459.602V460H193.234ZM187.633 455.289C188.633 455.289 189.555 455.07 190.398 454.633C191.242 454.18 191.867 453.578 192.273 452.828V448.469H189.742C186.352 448.469 184.547 449.641 184.328 451.984L184.305 452.383C184.305 453.227 184.602 453.922 185.195 454.469C185.789 455.016 186.602 455.289 187.633 455.289ZM216.672 460V434.641H227.266C230.719 434.641 233.367 435.25 235.211 436.469C237.055 437.688 237.977 439.438 237.977 441.719C237.977 442.891 237.586 443.945 236.805 444.883C236.039 445.805 234.914 446.516 233.43 447.016C235.242 447.359 236.664 448.039 237.695 449.055C238.742 450.055 239.266 451.289 239.266 452.758C239.266 455.117 238.375 456.914 236.594 458.148C234.828 459.383 232.258 460 228.883 460H216.672ZM223.445 449.477V454.586H228.906C231.297 454.586 232.492 453.75 232.492 452.078C232.492 450.375 231.352 449.508 229.07 449.477H223.445ZM223.445 444.93H227.641C230.016 444.898 231.203 444.133 231.203 442.633C231.203 441.711 230.875 441.055 230.219 440.664C229.578 440.273 228.594 440.078 227.266 440.078H223.445V444.93ZM242.359 447.086C242.359 444.57 242.844 442.328 243.812 440.359C244.781 438.391 246.172 436.867 247.984 435.789C249.812 434.711 251.93 434.172 254.336 434.172C257.758 434.172 260.547 435.219 262.703 437.312C264.875 439.406 266.086 442.25 266.336 445.844L266.383 447.578C266.383 451.469 265.297 454.594 263.125 456.953C260.953 459.297 258.039 460.469 254.383 460.469C250.727 460.469 247.805 459.297 245.617 456.953C243.445 454.609 242.359 451.422 242.359 447.391V447.086ZM249.133 447.578C249.133 449.984 249.586 451.828 250.492 453.109C251.398 454.375 252.695 455.008 254.383 455.008C256.023 455.008 257.305 454.383 258.227 453.133C259.148 451.867 259.609 449.852 259.609 447.086C259.609 444.727 259.148 442.898 258.227 441.602C257.305 440.305 256.008 439.656 254.336 439.656C252.68 439.656 251.398 440.305 250.492 441.602C249.586 442.883 249.133 444.875 249.133 447.578ZM282.953 460V434.641H293.547C297 434.641 299.648 435.25 301.492 436.469C303.336 437.688 304.258 439.438 304.258 441.719C304.258 442.891 303.867 443.945 303.086 444.883C302.32 445.805 301.195 446.516 299.711 447.016C301.523 447.359 302.945 448.039 303.977 449.055C305.023 450.055 305.547 451.289 305.547 452.758C305.547 455.117 304.656 456.914 302.875 458.148C301.109 459.383 298.539 460 295.164 460H282.953ZM289.727 449.477V454.586H295.188C297.578 454.586 298.773 453.75 298.773 452.078C298.773 450.375 297.633 449.508 295.352 449.477H289.727ZM289.727 444.93H293.922C296.297 444.898 297.484 444.133 297.484 442.633C297.484 441.711 297.156 441.055 296.5 440.664C295.859 440.273 294.875 440.078 293.547 440.078H289.727V444.93ZM332.523 447.555C332.523 451.461 331.633 454.594 329.852 456.953C328.086 459.297 325.695 460.469 322.68 460.469C320.117 460.469 318.047 459.578 316.469 457.797V469.75H309.695V434.641H315.977L316.211 437.125C317.852 435.156 319.992 434.172 322.633 434.172C325.758 434.172 328.188 435.328 329.922 437.641C331.656 439.953 332.523 443.141 332.523 447.203V447.555ZM325.75 447.062C325.75 444.703 325.328 442.883 324.484 441.602C323.656 440.32 322.445 439.68 320.852 439.68C318.727 439.68 317.266 440.492 316.469 442.117V452.5C317.297 454.172 318.773 455.008 320.898 455.008C324.133 455.008 325.75 452.359 325.75 447.062ZM348.414 460.469C344.695 460.469 341.664 459.328 339.32 457.047C336.992 454.766 335.828 451.727 335.828 447.93V447.273C335.828 444.727 336.32 442.453 337.305 440.453C338.289 438.438 339.68 436.891 341.477 435.812C343.289 434.719 345.352 434.172 347.664 434.172C351.133 434.172 353.859 435.266 355.844 437.453C357.844 439.641 358.844 442.742 358.844 446.758V449.523H342.695C342.914 451.18 343.57 452.508 344.664 453.508C345.773 454.508 347.172 455.008 348.859 455.008C351.469 455.008 353.508 454.062 354.977 452.172L358.305 455.898C357.289 457.336 355.914 458.461 354.18 459.273C352.445 460.07 350.523 460.469 348.414 460.469ZM347.641 439.656C346.297 439.656 345.203 440.109 344.359 441.016C343.531 441.922 343 443.219 342.766 444.906H352.188V444.367C352.156 442.867 351.75 441.711 350.969 440.898C350.188 440.07 349.078 439.656 347.641 439.656ZM378.156 452.008L384.789 434.641H393.273V460H386.5V444.438L380.43 460H375.883L369.93 444.695V460H363.156V434.641H371.57L378.156 452.008ZM420.32 434.641V460H413.57V451.234H409.281L404.406 460H397.539L403.07 450.086C401.555 449.383 400.383 448.43 399.555 447.227C398.742 446.023 398.336 444.656 398.336 443.125C398.336 440.672 399.281 438.664 401.172 437.102C403.078 435.523 405.625 434.703 408.812 434.641H420.32ZM408.93 446.5H413.57V440.078H409.164C407.961 440.078 406.984 440.398 406.234 441.039C405.484 441.664 405.109 442.43 405.109 443.336C405.109 444.242 405.469 444.992 406.188 445.586C406.906 446.18 407.82 446.484 408.93 446.5ZM460.047 460H453.25V440.125H444.766V460H437.992V434.641H460.047V460ZM479.922 460C479.609 459.391 479.383 458.633 479.242 457.727C477.602 459.555 475.469 460.469 472.844 460.469C470.359 460.469 468.297 459.75 466.656 458.312C465.031 456.875 464.219 455.062 464.219 452.875C464.219 450.188 465.211 448.125 467.195 446.688C469.195 445.25 472.078 444.523 475.844 444.508H478.961V443.055C478.961 441.883 478.656 440.945 478.047 440.242C477.453 439.539 476.508 439.188 475.211 439.188C474.07 439.188 473.172 439.461 472.516 440.008C471.875 440.555 471.555 441.305 471.555 442.258H464.781C464.781 440.789 465.234 439.43 466.141 438.18C467.047 436.93 468.328 435.953 469.984 435.25C471.641 434.531 473.5 434.172 475.562 434.172C478.688 434.172 481.164 434.961 482.992 436.539C484.836 438.102 485.758 440.305 485.758 443.148V454.141C485.773 456.547 486.109 458.367 486.766 459.602V460H479.922ZM474.32 455.289C475.32 455.289 476.242 455.07 477.086 454.633C477.93 454.18 478.555 453.578 478.961 452.828V448.469H476.43C473.039 448.469 471.234 449.641 471.016 451.984L470.992 452.383C470.992 453.227 471.289 453.922 471.883 454.469C472.477 455.016 473.289 455.289 474.32 455.289ZM512.945 460H506.148V450.25H497.734V460H490.961V434.641H497.734V444.812H506.148V434.641H512.945V460ZM518.547 454.539C520.078 452.914 521.117 451.305 521.664 449.711C522.211 448.117 522.516 445.859 522.578 442.938L522.766 434.641H541.422V454.539H545.078V467.617H538.305V460H523.281V467.617H516.367V454.539H518.547ZM526.539 454.539H534.672V440.242H529.398L529.352 443.289C529.211 447.945 528.273 451.695 526.539 454.539ZM560.195 460.469C556.477 460.469 553.445 459.328 551.102 457.047C548.773 454.766 547.609 451.727 547.609 447.93V447.273C547.609 444.727 548.102 442.453 549.086 440.453C550.07 438.438 551.461 436.891 553.258 435.812C555.07 434.719 557.133 434.172 559.445 434.172C562.914 434.172 565.641 435.266 567.625 437.453C569.625 439.641 570.625 442.742 570.625 446.758V449.523H554.477C554.695 451.18 555.352 452.508 556.445 453.508C557.555 454.508 558.953 455.008 560.641 455.008C563.25 455.008 565.289 454.062 566.758 452.172L570.086 455.898C569.07 457.336 567.695 458.461 565.961 459.273C564.227 460.07 562.305 460.469 560.195 460.469ZM559.422 439.656C558.078 439.656 556.984 440.109 556.141 441.016C555.312 441.922 554.781 443.219 554.547 444.906H563.969V444.367C563.938 442.867 563.531 441.711 562.75 440.898C561.969 440.07 560.859 439.656 559.422 439.656ZM589.938 452.008L596.57 434.641H605.055V460H598.281V444.438L592.211 460H587.664L581.711 444.695V460H574.938V434.641H583.352L589.938 452.008ZM626.242 434.641H633.016V460H626.242V444.344L617.758 460H610.961V434.641H617.758V450.273L626.242 434.641ZM653.477 434.641H660.25V460H653.477V444.344L644.992 460H638.195V434.641H644.992V450.273L653.477 434.641Z" fill="#6283D8"/>
<g clip-path="url(#clip0)">
<path d="M1103.78 303.477C1104.76 316.223 1095.8 327.539 1083.76 328.747C1074.54 329.671 1066.2 324.401 1062.35 316.168L1051.42 317.131L1043.18 321.111C1041.29 322.017 1040.02 323.821 1039.73 325.892C1038.95 331.475 1037.54 336.852 1035.57 341.961C1034.9 343.692 1035.02 345.624 1035.93 347.238L1038.87 352.492L1047.04 357.974C1051.35 356.327 1056.36 356.723 1060.49 359.488C1067.48 364.181 1069.15 373.837 1063.95 380.634C1059.48 386.489 1051.16 388.097 1044.82 384.335C1040.79 381.942 1038.35 377.968 1037.75 373.721L1028.7 367.648L1023 366.952C1021.04 366.713 1019.09 367.386 1017.67 368.749C1012.86 373.33 1007.43 377.266 1001.52 380.416C999.533 381.473 998.258 383.505 998.12 385.748L997.396 397.292L1000.98 411.513C1007.08 413.216 1012.12 418.053 1013.78 424.632C1016.29 434.578 1010.11 444.669 1000.03 446.912C990.944 448.938 981.622 443.639 978.733 434.783C976.485 427.87 978.549 420.724 983.303 416.054L979.702 401.749L974.141 392.81C972.649 390.411 970.012 388.992 967.183 388.997C967.166 388.997 967.155 388.997 967.138 388.997C962.268 388.997 957.503 388.513 952.895 387.606C950.151 387.061 947.319 387.929 945.392 389.96L938.046 397.713L929.82 414.778C931.746 418.691 931.918 423.416 929.881 427.652C926.219 435.245 916.879 438.261 909.415 434.064C903.025 430.463 900.26 422.515 903.042 415.724C904.94 411.093 908.875 407.999 913.328 406.963L921.604 389.787L923.229 378.259C923.524 376.132 922.712 373.99 921.042 372.643C914.457 367.3 908.813 360.849 904.4 353.569C903.303 351.76 901.332 350.663 899.218 350.647L887.708 350.536L875.106 354.498C874.221 362.336 868.855 369.298 860.852 371.814C850.099 375.199 838.643 369.287 835.153 358.602C831.663 347.92 837.558 336.238 848.228 332.708C855.697 330.237 863.545 332.291 868.855 337.339L882.231 333.131L891.999 326.168C893.452 325.138 894.225 323.413 894.081 321.643C893.919 319.677 893.836 317.696 893.836 315.692C893.836 304.805 896.229 294.47 900.504 285.174C901.127 283.811 901.11 282.241 900.454 280.894L897.559 274.977L889.706 269.05C885.309 270.457 880.327 269.784 876.364 266.795C869.64 261.719 868.505 251.984 874.071 245.489C878.864 239.895 887.263 238.749 893.38 242.856C897.277 245.472 899.491 249.568 899.847 253.843L908.553 260.411L917.324 261.975C923.709 256.047 931.15 251.244 939.327 247.877L941.387 235.365L938.788 222.44C931.096 220.459 924.85 214.564 923.169 206.705C920.798 195.601 928.429 184.786 940.218 182.554C952.001 180.323 963.479 187.508 965.849 198.612C967.626 206.922 963.801 215.065 956.822 219.574L959.276 231.763L965.304 241.381C965.699 242.01 966.39 242.389 967.13 242.389H967.141C980.945 242.389 993.869 246.229 1004.91 252.897C1005.51 253.259 1006.26 253.308 1006.9 253.008L1016.34 248.633L1027.36 236.711C1026.7 232.436 1027.92 227.905 1031.08 224.483C1036.81 218.299 1046.6 218.143 1052.51 224.327C1057.69 229.754 1057.9 238.408 1052.97 244.074C1049.79 247.742 1045.22 249.434 1040.76 249.1L1029.73 261.026L1026.15 270.654C1025.9 271.323 1026.02 272.068 1026.43 272.647C1030.78 278.614 1034.25 285.26 1036.64 292.395C1037.3 294.354 1038.86 295.88 1040.85 296.441L1049.82 298.951L1061.46 297.922C1064.32 289.689 1071.44 283.461 1080.2 282.581C1092.24 281.375 1102.8 290.731 1103.78 303.477Z" fill="#EA5160" stroke="#CE1628" stroke-width="5.6693" stroke-miterlimit="10"/>
<path d="M967.139 369.973C997.117 369.973 1021.42 345.672 1021.42 315.694C1021.42 285.717 997.117 261.415 967.139 261.415C937.162 261.415 912.86 285.717 912.86 315.694C912.86 345.672 937.162 369.973 967.139 369.973Z" fill="#F58A97"/>
<path d="M929.404 315.694C929.404 288.528 949.359 266.025 975.411 262.041C972.713 261.629 969.952 261.414 967.139 261.414C937.161 261.414 912.86 285.715 912.86 315.693C912.86 345.672 937.161 369.973 967.139 369.973C969.952 369.973 972.713 369.76 975.411 369.347C949.36 365.364 929.404 342.86 929.404 315.694Z" fill="#F07281"/>
<path d="M950.478 314.745C958.221 314.745 964.498 308.468 964.498 300.725C964.498 292.982 958.221 286.705 950.478 286.705C942.735 286.705 936.458 292.982 936.458 300.725C936.458 308.468 942.735 314.745 950.478 314.745Z" fill="#EE596B"/>
<path d="M971.152 345.802C971.996 340.599 968.463 335.697 963.261 334.853C958.058 334.009 953.156 337.542 952.312 342.744C951.468 347.947 955.001 352.849 960.204 353.693C965.406 354.537 970.308 351.004 971.152 345.802Z" fill="#EE596B"/>
<path d="M991.697 323.707C996.123 323.707 999.711 320.12 999.711 315.694C999.711 311.268 996.123 307.681 991.697 307.681C987.272 307.681 983.684 311.268 983.684 315.694C983.684 320.12 987.272 323.707 991.697 323.707Z" fill="#EE596B"/>
</g>
<path d="M440 60V14.5H455.938C461.458 14.5 465.646 15.5625 468.5 17.6875C471.354 19.7917 472.781 22.8854 472.781 26.9688C472.781 29.1979 472.208 31.1667 471.062 32.875C469.917 34.5625 468.323 35.8021 466.281 36.5938C468.615 37.1771 470.448 38.3542 471.781 40.125C473.135 41.8958 473.812 44.0625 473.812 46.625C473.812 51 472.417 54.3125 469.625 56.5625C466.833 58.8125 462.854 59.9583 457.688 60H440ZM449.375 40.1875V52.4688H457.406C459.615 52.4688 461.333 51.9479 462.562 50.9062C463.812 49.8438 464.438 48.3854 464.438 46.5312C464.438 42.3646 462.281 40.25 457.969 40.1875H449.375ZM449.375 33.5625H456.312C461.042 33.4792 463.406 31.5938 463.406 27.9062C463.406 25.8438 462.802 24.3646 461.594 23.4688C460.406 22.5521 458.521 22.0938 455.938 22.0938H449.375V33.5625ZM509.594 60H500.531V47H489.312V60H480.281V26.1875H489.312V39.75H500.531V26.1875H509.594V60ZM536.969 26.1875H546V60H536.969V39.125L525.656 60H516.594V26.1875H525.656V47.0312L536.969 26.1875ZM573.5 49.3438L582.344 26.1875H593.656V60H584.625V39.25L576.531 60H570.469L562.531 39.5938V60H553.5V26.1875H564.719L573.5 49.3438ZM621.125 60C620.708 59.1875 620.406 58.1771 620.219 56.9688C618.031 59.4062 615.188 60.625 611.688 60.625C608.375 60.625 605.625 59.6667 603.438 57.75C601.271 55.8333 600.188 53.4167 600.188 50.5C600.188 46.9167 601.51 44.1667 604.156 42.25C606.823 40.3333 610.667 39.3646 615.688 39.3438H619.844V37.4062C619.844 35.8438 619.438 34.5938 618.625 33.6562C617.833 32.7188 616.573 32.25 614.844 32.25C613.323 32.25 612.125 32.6146 611.25 33.3438C610.396 34.0729 609.969 35.0729 609.969 36.3438H600.938C600.938 34.3854 601.542 32.5729 602.75 30.9062C603.958 29.2396 605.667 27.9375 607.875 27C610.083 26.0417 612.562 25.5625 615.312 25.5625C619.479 25.5625 622.781 26.6146 625.219 28.7188C627.677 30.8021 628.906 33.7396 628.906 37.5312V52.1875C628.927 55.3958 629.375 57.8229 630.25 59.4688V60H621.125ZM613.656 53.7188C614.99 53.7188 616.219 53.4271 617.344 52.8438C618.469 52.2396 619.302 51.4375 619.844 50.4375V44.625H616.469C611.948 44.625 609.542 46.1875 609.25 49.3125L609.219 49.8438C609.219 50.9688 609.615 51.8958 610.406 52.625C611.198 53.3542 612.281 53.7188 613.656 53.7188ZM665.156 60H656.094V47H644.875V60H635.844V26.1875H644.875V39.75H656.094V26.1875H665.156V60ZM692.531 26.1875H701.562V60H692.531V39.125L681.219 60H672.156V26.1875H681.219V47.0312L692.531 26.1875ZM724.031 60.625C719.073 60.625 715.031 59.1042 711.906 56.0625C708.802 53.0208 707.25 48.9688 707.25 43.9062V43.0312C707.25 39.6354 707.906 36.6042 709.219 33.9375C710.531 31.25 712.385 29.1875 714.781 27.75C717.198 26.2917 719.948 25.5625 723.031 25.5625C727.656 25.5625 731.292 27.0208 733.938 29.9375C736.604 32.8542 737.938 36.9896 737.938 42.3438V46.0312H716.406C716.698 48.2396 717.573 50.0104 719.031 51.3438C720.51 52.6771 722.375 53.3438 724.625 53.3438C728.104 53.3438 730.823 52.0833 732.781 49.5625L737.219 54.5312C735.865 56.4479 734.031 57.9479 731.719 59.0312C729.406 60.0938 726.844 60.625 724.031 60.625ZM723 32.875C721.208 32.875 719.75 33.4792 718.625 34.6875C717.521 35.8958 716.812 37.625 716.5 39.875H729.062V39.1562C729.021 37.1562 728.479 35.6146 727.438 34.5312C726.396 33.4271 724.917 32.875 723 32.875ZM752.281 46.0312H744.781L743.719 14.5H753.344L752.281 46.0312ZM748.531 50.9688C750.052 50.9688 751.271 51.4167 752.188 52.3125C753.125 53.2083 753.594 54.3542 753.594 55.75C753.594 57.125 753.125 58.2604 752.188 59.1562C751.271 60.0521 750.052 60.5 748.531 60.5C747.031 60.5 745.812 60.0521 744.875 59.1562C743.958 58.2604 743.5 57.125 743.5 55.75C743.5 54.375 743.958 53.2396 744.875 52.3438C745.812 51.4271 747.031 50.9688 748.531 50.9688Z" fill="#E8E8E8"/>
<defs>
<filter id="filter0_f" x="-282" y="169" width="659.132" height="663.825" filterUnits="userSpaceOnUse" color-interpolation-filters="sRGB">
<feFlood flood-opacity="0" result="BackgroundImageFix"/>
<feBlend mode="normal" in="SourceGraphic" in2="BackgroundImageFix" result="shape"/>
<feGaussianBlur stdDeviation="5" result="effect1_foregroundBlur"/>
</filter>
<filter id="filter1_f" x="316" y="-289" width="621.493" height="628.659" filterUnits="userSpaceOnUse" color-interpolation-filters="sRGB">
<feFlood flood-opacity="0" result="BackgroundImageFix"/>
<feBlend mode="normal" in="SourceGraphic" in2="BackgroundImageFix" result="shape"/>
<feGaussianBlur stdDeviation="5" result="effect1_foregroundBlur"/>
</filter>
<filter id="filter2_f" x="812" y="342" width="498" height="486" filterUnits="userSpaceOnUse" color-interpolation-filters="sRGB">
<feFlood flood-opacity="0" result="BackgroundImageFix"/>
<feBlend mode="normal" in="SourceGraphic" in2="BackgroundImageFix" result="shape"/>
<feGaussianBlur stdDeviation="5" result="effect1_foregroundBlur"/>
</filter>
<clipPath id="clip0">
<rect x="832" y="180" width="274" height="269.49" fill="white"/>
</clipPath>
</defs>
</svg>
