<svg width="1193" height="580" viewBox="0 0 1193 580" fill="none" xmlns="http://www.w3.org/2000/svg">
<path d="M0 0H1193V575H0V0Z" fill="#F9F9F9"/>
<g filter="url(#filter0_f)">
<path d="M-94.6541 674.027C-137.23 580.236 -159.47 388.073 -127.498 336.129C-90.4156 269.082 56.8756 232.941 119.473 267.563C195.583 320.317 244.437 422.42 262.047 542.255C279.657 662.089 65.0408 869.608 -94.6541 674.027Z" fill="#EBECF7" fill-opacity="0.41"/>
</g>
<g filter="url(#filter1_f)">
<path d="M589.523 -195.599C688.223 -166.145 847.781 -56.7704 865.976 1.44782C892.208 73.4351 822.777 208.269 755.567 232.761C665.808 255.543 556.715 225.366 454.758 159.982C352.801 94.5977 337.151 -203.528 589.523 -195.599Z" fill="#EBECF6" fill-opacity="0.41"/>
</g>
<g filter="url(#filter2_f)">
<path d="M1281.32 625.667C1219.85 708.318 1062.46 820.785 1001.53 817.947C924.913 817.947 822 706.549 822 635.015C831.327 542.881 897.03 450.713 993.371 377.304C1089.71 303.895 1375.18 391.263 1281.32 625.667Z" fill="#EBECF6" fill-opacity="0.41"/>
</g>
<path d="M346.004 132.453H327.512L323.996 143H312.781L331.836 91.8125H341.609L360.77 143H349.555L346.004 132.453ZM330.359 123.91H343.156L336.723 104.75L330.359 123.91ZM365.41 134.809C367.707 132.371 369.266 129.957 370.086 127.566C370.906 125.176 371.363 121.789 371.457 117.406L371.738 104.961H399.723V134.809H405.207V154.426H395.047V143H372.512V154.426H362.141V134.809H365.41ZM377.398 134.809H389.598V113.363H381.688L381.617 117.934C381.406 124.918 380 130.543 377.398 134.809ZM432.91 131.012L442.859 104.961H455.586V143H445.426V119.656L436.32 143H429.5L420.57 120.043V143H410.41V104.961H423.031L432.91 131.012ZM487.367 104.961H497.527V143H487.367V119.516L474.641 143H464.445V104.961H474.641V128.41L487.367 104.961ZM538.273 143H528.078V128.375H515.457V143H505.297V104.961H515.457V120.219H528.078V104.961H538.273V143ZM569.07 104.961H579.23V143H569.07V119.516L556.344 143H546.148V104.961H556.344V128.41L569.07 104.961ZM602.82 135.512C604.695 135.512 606.219 134.996 607.391 133.965C608.562 132.934 609.172 131.562 609.219 129.852H618.746C618.723 132.43 618.02 134.797 616.637 136.953C615.254 139.086 613.355 140.75 610.941 141.945C608.551 143.117 605.902 143.703 602.996 143.703C597.559 143.703 593.27 141.98 590.129 138.535C586.988 135.066 585.418 130.285 585.418 124.191V123.523C585.418 117.664 586.977 112.988 590.094 109.496C593.211 106.004 597.488 104.258 602.926 104.258C607.684 104.258 611.492 105.617 614.352 108.336C617.234 111.031 618.699 114.629 618.746 119.129H609.219C609.172 117.16 608.562 115.566 607.391 114.348C606.219 113.105 604.672 112.484 602.75 112.484C600.383 112.484 598.59 113.352 597.371 115.086C596.176 116.797 595.578 119.586 595.578 123.453V124.508C595.578 128.422 596.176 131.234 597.371 132.945C598.566 134.656 600.383 135.512 602.82 135.512ZM656.117 113.117H643.918V143H633.723V113.117H621.734V104.961H656.117V113.117ZM695.492 124.332C695.492 130.191 694.156 134.891 691.484 138.43C688.836 141.945 685.25 143.703 680.727 143.703C676.883 143.703 673.777 142.367 671.41 139.695V157.625H661.25V104.961H670.672L671.023 108.688C673.484 105.734 676.695 104.258 680.656 104.258C685.344 104.258 688.988 105.992 691.59 109.461C694.191 112.93 695.492 117.711 695.492 123.805V124.332ZM685.332 123.594C685.332 120.055 684.699 117.324 683.434 115.402C682.191 113.48 680.375 112.52 677.984 112.52C674.797 112.52 672.605 113.738 671.41 116.176V131.75C672.652 134.258 674.867 135.512 678.055 135.512C682.906 135.512 685.332 131.539 685.332 123.594ZM723.863 143C723.395 142.086 723.055 140.949 722.844 139.59C720.383 142.332 717.184 143.703 713.246 143.703C709.52 143.703 706.426 142.625 703.965 140.469C701.527 138.312 700.309 135.594 700.309 132.312C700.309 128.281 701.797 125.188 704.773 123.031C707.773 120.875 712.098 119.785 717.746 119.762H722.422V117.582C722.422 115.824 721.965 114.418 721.051 113.363C720.16 112.309 718.742 111.781 716.797 111.781C715.086 111.781 713.738 112.191 712.754 113.012C711.793 113.832 711.312 114.957 711.312 116.387H701.152C701.152 114.184 701.832 112.145 703.191 110.27C704.551 108.395 706.473 106.93 708.957 105.875C711.441 104.797 714.23 104.258 717.324 104.258C722.012 104.258 725.727 105.441 728.469 107.809C731.234 110.152 732.617 113.457 732.617 117.723V134.211C732.641 137.82 733.145 140.551 734.129 142.402V143H723.863ZM715.461 135.934C716.961 135.934 718.344 135.605 719.609 134.949C720.875 134.27 721.812 133.367 722.422 132.242V125.703H718.625C713.539 125.703 710.832 127.461 710.504 130.977L710.469 131.574C710.469 132.84 710.914 133.883 711.805 134.703C712.695 135.523 713.914 135.934 715.461 135.934ZM740.422 104.961H750.582V134.809H763.309V104.961H773.504V134.879H779.199L778.496 154.285H769.039V143H740.422V104.961ZM807.219 104.961H817.379V143H807.219V119.516L794.492 143H784.297V104.961H794.492V128.41L807.219 104.961ZM856.859 104.961V143H846.734V129.852H840.301L832.988 143H822.688L830.984 128.129C828.711 127.074 826.953 125.645 825.711 123.84C824.492 122.035 823.883 119.984 823.883 117.688C823.883 114.008 825.301 110.996 828.137 108.652C830.996 106.285 834.816 105.055 839.598 104.961H856.859ZM839.773 122.75H846.734V113.117H840.125C838.32 113.117 836.855 113.598 835.73 114.559C834.605 115.496 834.043 116.645 834.043 118.004C834.043 119.363 834.582 120.488 835.66 121.379C836.738 122.27 838.109 122.727 839.773 122.75Z" fill="#DE5F57"/>
<path d="M114.98 198.57H99.7461V205.18H105.23C109.246 205.18 112.426 206.156 114.77 208.109C117.129 210.047 118.309 212.664 118.309 215.961C118.309 219.273 117.137 221.938 114.793 223.953C112.465 225.953 109.363 226.969 105.488 227H92.6445V192.875H114.98V198.57ZM99.7461 210.852V221.352H105.348C107.145 221.352 108.574 220.859 109.637 219.875C110.715 218.891 111.254 217.57 111.254 215.914C111.254 214.367 110.738 213.148 109.707 212.258C108.691 211.352 107.293 210.883 105.512 210.852H99.7461ZM137.059 227C136.746 226.391 136.52 225.633 136.379 224.727C134.738 226.555 132.605 227.469 129.98 227.469C127.496 227.469 125.434 226.75 123.793 225.312C122.168 223.875 121.355 222.062 121.355 219.875C121.355 217.188 122.348 215.125 124.332 213.688C126.332 212.25 129.215 211.523 132.98 211.508H136.098V210.055C136.098 208.883 135.793 207.945 135.184 207.242C134.59 206.539 133.645 206.188 132.348 206.188C131.207 206.188 130.309 206.461 129.652 207.008C129.012 207.555 128.691 208.305 128.691 209.258H121.918C121.918 207.789 122.371 206.43 123.277 205.18C124.184 203.93 125.465 202.953 127.121 202.25C128.777 201.531 130.637 201.172 132.699 201.172C135.824 201.172 138.301 201.961 140.129 203.539C141.973 205.102 142.895 207.305 142.895 210.148V221.141C142.91 223.547 143.246 225.367 143.902 226.602V227H137.059ZM131.457 222.289C132.457 222.289 133.379 222.07 134.223 221.633C135.066 221.18 135.691 220.578 136.098 219.828V215.469H133.566C130.176 215.469 128.371 216.641 128.152 218.984L128.129 219.383C128.129 220.227 128.426 220.922 129.02 221.469C129.613 222.016 130.426 222.289 131.457 222.289ZM170.152 201.641V227H163.379V207.125H157.402L156.98 214.953C156.715 219.125 155.895 222.164 154.52 224.07C153.145 225.977 151.098 226.953 148.379 227H146.082L146.012 221.492L146.855 221.422C148.074 221.328 148.965 220.609 149.527 219.266C150.09 217.922 150.441 215.633 150.582 212.398L151.051 201.641H170.152ZM190.074 227C189.762 226.391 189.535 225.633 189.395 224.727C187.754 226.555 185.621 227.469 182.996 227.469C180.512 227.469 178.449 226.75 176.809 225.312C175.184 223.875 174.371 222.062 174.371 219.875C174.371 217.188 175.363 215.125 177.348 213.688C179.348 212.25 182.23 211.523 185.996 211.508H189.113V210.055C189.113 208.883 188.809 207.945 188.199 207.242C187.605 206.539 186.66 206.188 185.363 206.188C184.223 206.188 183.324 206.461 182.668 207.008C182.027 207.555 181.707 208.305 181.707 209.258H174.934C174.934 207.789 175.387 206.43 176.293 205.18C177.199 203.93 178.48 202.953 180.137 202.25C181.793 201.531 183.652 201.172 185.715 201.172C188.84 201.172 191.316 201.961 193.145 203.539C194.988 205.102 195.91 207.305 195.91 210.148V221.141C195.926 223.547 196.262 225.367 196.918 226.602V227H190.074ZM184.473 222.289C185.473 222.289 186.395 222.07 187.238 221.633C188.082 221.18 188.707 220.578 189.113 219.828V215.469H186.582C183.191 215.469 181.387 216.641 181.168 218.984L181.145 219.383C181.145 220.227 181.441 220.922 182.035 221.469C182.629 222.016 183.441 222.289 184.473 222.289ZM211.051 217.648H208.332V227H201.559V201.641H208.332V211.18H210.746L216.277 201.641H224.832L216.535 213.711L225.605 227H216.582L211.051 217.648ZM225.746 214.086C225.746 211.57 226.23 209.328 227.199 207.359C228.168 205.391 229.559 203.867 231.371 202.789C233.199 201.711 235.316 201.172 237.723 201.172C241.145 201.172 243.934 202.219 246.09 204.312C248.262 206.406 249.473 209.25 249.723 212.844L249.77 214.578C249.77 218.469 248.684 221.594 246.512 223.953C244.34 226.297 241.426 227.469 237.77 227.469C234.113 227.469 231.191 226.297 229.004 223.953C226.832 221.609 225.746 218.422 225.746 214.391V214.086ZM232.52 214.578C232.52 216.984 232.973 218.828 233.879 220.109C234.785 221.375 236.082 222.008 237.77 222.008C239.41 222.008 240.691 221.383 241.613 220.133C242.535 218.867 242.996 216.852 242.996 214.086C242.996 211.727 242.535 209.898 241.613 208.602C240.691 207.305 239.395 206.656 237.723 206.656C236.066 206.656 234.785 207.305 233.879 208.602C232.973 209.883 232.52 211.875 232.52 214.578ZM254.387 227V201.641H264.98C268.434 201.641 271.082 202.25 272.926 203.469C274.77 204.688 275.691 206.438 275.691 208.719C275.691 209.891 275.301 210.945 274.52 211.883C273.754 212.805 272.629 213.516 271.145 214.016C272.957 214.359 274.379 215.039 275.41 216.055C276.457 217.055 276.98 218.289 276.98 219.758C276.98 222.117 276.09 223.914 274.309 225.148C272.543 226.383 269.973 227 266.598 227H254.387ZM261.16 216.477V221.586H266.621C269.012 221.586 270.207 220.75 270.207 219.078C270.207 217.375 269.066 216.508 266.785 216.477H261.16ZM261.16 211.93H265.355C267.73 211.898 268.918 211.133 268.918 209.633C268.918 208.711 268.59 208.055 267.934 207.664C267.293 207.273 266.309 207.078 264.98 207.078H261.16V211.93ZM291.676 222.008C292.926 222.008 293.941 221.664 294.723 220.977C295.504 220.289 295.91 219.375 295.941 218.234H302.293C302.277 219.953 301.809 221.531 300.887 222.969C299.965 224.391 298.699 225.5 297.09 226.297C295.496 227.078 293.73 227.469 291.793 227.469C288.168 227.469 285.309 226.32 283.215 224.023C281.121 221.711 280.074 218.523 280.074 214.461V214.016C280.074 210.109 281.113 206.992 283.191 204.664C285.27 202.336 288.121 201.172 291.746 201.172C294.918 201.172 297.457 202.078 299.363 203.891C301.285 205.688 302.262 208.086 302.293 211.086H295.941C295.91 209.773 295.504 208.711 294.723 207.898C293.941 207.07 292.91 206.656 291.629 206.656C290.051 206.656 288.855 207.234 288.043 208.391C287.246 209.531 286.848 211.391 286.848 213.969V214.672C286.848 217.281 287.246 219.156 288.043 220.297C288.84 221.438 290.051 222.008 291.676 222.008ZM316.098 217.648H313.379V227H306.605V201.641H313.379V211.18H315.793L321.324 201.641H329.879L321.582 213.711L330.652 227H321.629L316.098 217.648ZM330.793 214.086C330.793 211.57 331.277 209.328 332.246 207.359C333.215 205.391 334.605 203.867 336.418 202.789C338.246 201.711 340.363 201.172 342.77 201.172C346.191 201.172 348.98 202.219 351.137 204.312C353.309 206.406 354.52 209.25 354.77 212.844L354.816 214.578C354.816 218.469 353.73 221.594 351.559 223.953C349.387 226.297 346.473 227.469 342.816 227.469C339.16 227.469 336.238 226.297 334.051 223.953C331.879 221.609 330.793 218.422 330.793 214.391V214.086ZM337.566 214.578C337.566 216.984 338.02 218.828 338.926 220.109C339.832 221.375 341.129 222.008 342.816 222.008C344.457 222.008 345.738 221.383 346.66 220.133C347.582 218.867 348.043 216.852 348.043 214.086C348.043 211.727 347.582 209.898 346.66 208.602C345.738 207.305 344.441 206.656 342.77 206.656C341.113 206.656 339.832 207.305 338.926 208.602C338.02 209.883 337.566 211.875 337.566 214.578ZM374.27 201.641H381.043V227H374.27V211.344L365.785 227H358.988V201.641H365.785V217.273L374.27 201.641ZM378.254 191.352C378.254 193.43 377.504 195.109 376.004 196.391C374.52 197.672 372.566 198.312 370.145 198.312C367.723 198.312 365.762 197.68 364.262 196.414C362.777 195.148 362.035 193.461 362.035 191.352H366.84C366.84 192.336 367.129 193.102 367.707 193.648C368.301 194.18 369.113 194.445 370.145 194.445C371.16 194.445 371.957 194.18 372.535 193.648C373.113 193.102 373.402 192.336 373.402 191.352H378.254ZM415.449 207.125H404.949V227H398.176V201.641H415.449V207.125ZM416.762 214.086C416.762 211.57 417.246 209.328 418.215 207.359C419.184 205.391 420.574 203.867 422.387 202.789C424.215 201.711 426.332 201.172 428.738 201.172C432.16 201.172 434.949 202.219 437.105 204.312C439.277 206.406 440.488 209.25 440.738 212.844L440.785 214.578C440.785 218.469 439.699 221.594 437.527 223.953C435.355 226.297 432.441 227.469 428.785 227.469C425.129 227.469 422.207 226.297 420.02 223.953C417.848 221.609 416.762 218.422 416.762 214.391V214.086ZM423.535 214.578C423.535 216.984 423.988 218.828 424.895 220.109C425.801 221.375 427.098 222.008 428.785 222.008C430.426 222.008 431.707 221.383 432.629 220.133C433.551 218.867 434.012 216.852 434.012 214.086C434.012 211.727 433.551 209.898 432.629 208.602C431.707 207.305 430.41 206.656 428.738 206.656C427.082 206.656 425.801 207.305 424.895 208.602C423.988 209.883 423.535 211.875 423.535 214.578ZM467.785 214.555C467.785 218.461 466.895 221.594 465.113 223.953C463.348 226.297 460.957 227.469 457.941 227.469C455.379 227.469 453.309 226.578 451.73 224.797V236.75H444.957V201.641H451.238L451.473 204.125C453.113 202.156 455.254 201.172 457.895 201.172C461.02 201.172 463.449 202.328 465.184 204.641C466.918 206.953 467.785 210.141 467.785 214.203V214.555ZM461.012 214.062C461.012 211.703 460.59 209.883 459.746 208.602C458.918 207.32 457.707 206.68 456.113 206.68C453.988 206.68 452.527 207.492 451.73 209.117V219.5C452.559 221.172 454.035 222.008 456.16 222.008C459.395 222.008 461.012 219.359 461.012 214.062ZM470.949 214.086C470.949 211.57 471.434 209.328 472.402 207.359C473.371 205.391 474.762 203.867 476.574 202.789C478.402 201.711 480.52 201.172 482.926 201.172C486.348 201.172 489.137 202.219 491.293 204.312C493.465 206.406 494.676 209.25 494.926 212.844L494.973 214.578C494.973 218.469 493.887 221.594 491.715 223.953C489.543 226.297 486.629 227.469 482.973 227.469C479.316 227.469 476.395 226.297 474.207 223.953C472.035 221.609 470.949 218.422 470.949 214.391V214.086ZM477.723 214.578C477.723 216.984 478.176 218.828 479.082 220.109C479.988 221.375 481.285 222.008 482.973 222.008C484.613 222.008 485.895 221.383 486.816 220.133C487.738 218.867 488.199 216.852 488.199 214.086C488.199 211.727 487.738 209.898 486.816 208.602C485.895 207.305 484.598 206.656 482.926 206.656C481.27 206.656 479.988 207.305 479.082 208.602C478.176 209.883 477.723 211.875 477.723 214.578ZM497.809 221.539C499.34 219.914 500.379 218.305 500.926 216.711C501.473 215.117 501.777 212.859 501.84 209.938L502.027 201.641H520.684V221.539H524.34V234.617H517.566V227H502.543V234.617H495.629V221.539H497.809ZM505.801 221.539H513.934V207.242H508.66L508.613 210.289C508.473 214.945 507.535 218.695 505.801 221.539ZM538.332 222.008C539.582 222.008 540.598 221.664 541.379 220.977C542.16 220.289 542.566 219.375 542.598 218.234H548.949C548.934 219.953 548.465 221.531 547.543 222.969C546.621 224.391 545.355 225.5 543.746 226.297C542.152 227.078 540.387 227.469 538.449 227.469C534.824 227.469 531.965 226.32 529.871 224.023C527.777 221.711 526.73 218.523 526.73 214.461V214.016C526.73 210.109 527.77 206.992 529.848 204.664C531.926 202.336 534.777 201.172 538.402 201.172C541.574 201.172 544.113 202.078 546.02 203.891C547.941 205.688 548.918 208.086 548.949 211.086H542.598C542.566 209.773 542.16 208.711 541.379 207.898C540.598 207.07 539.566 206.656 538.285 206.656C536.707 206.656 535.512 207.234 534.699 208.391C533.902 209.531 533.504 211.391 533.504 213.969V214.672C533.504 217.281 533.902 219.156 534.699 220.297C535.496 221.438 536.707 222.008 538.332 222.008ZM562.754 217.648H560.035V227H553.262V201.641H560.035V211.18H562.449L567.98 201.641H576.535L568.238 213.711L577.309 227H568.285L562.754 217.648ZM577.449 214.086C577.449 211.57 577.934 209.328 578.902 207.359C579.871 205.391 581.262 203.867 583.074 202.789C584.902 201.711 587.02 201.172 589.426 201.172C592.848 201.172 595.637 202.219 597.793 204.312C599.965 206.406 601.176 209.25 601.426 212.844L601.473 214.578C601.473 218.469 600.387 221.594 598.215 223.953C596.043 226.297 593.129 227.469 589.473 227.469C585.816 227.469 582.895 226.297 580.707 223.953C578.535 221.609 577.449 218.422 577.449 214.391V214.086ZM584.223 214.578C584.223 216.984 584.676 218.828 585.582 220.109C586.488 221.375 587.785 222.008 589.473 222.008C591.113 222.008 592.395 221.383 593.316 220.133C594.238 218.867 594.699 216.852 594.699 214.086C594.699 211.727 594.238 209.898 593.316 208.602C592.395 207.305 591.098 206.656 589.426 206.656C587.77 206.656 586.488 207.305 585.582 208.602C584.676 209.883 584.223 211.875 584.223 214.578ZM620.926 201.641H627.699V227H620.926V211.344L612.441 227H605.645V201.641H612.441V217.273L620.926 201.641ZM624.91 191.352C624.91 193.43 624.16 195.109 622.66 196.391C621.176 197.672 619.223 198.312 616.801 198.312C614.379 198.312 612.418 197.68 610.918 196.414C609.434 195.148 608.691 193.461 608.691 191.352H613.496C613.496 192.336 613.785 193.102 614.363 193.648C614.957 194.18 615.77 194.445 616.801 194.445C617.816 194.445 618.613 194.18 619.191 193.648C619.77 193.102 620.059 192.336 620.059 191.352H624.91ZM666.887 227H660.09V207.125H651.605V227H644.832V201.641H666.887V227ZM671.012 214.086C671.012 211.57 671.496 209.328 672.465 207.359C673.434 205.391 674.824 203.867 676.637 202.789C678.465 201.711 680.582 201.172 682.988 201.172C686.41 201.172 689.199 202.219 691.355 204.312C693.527 206.406 694.738 209.25 694.988 212.844L695.035 214.578C695.035 218.469 693.949 221.594 691.777 223.953C689.605 226.297 686.691 227.469 683.035 227.469C679.379 227.469 676.457 226.297 674.27 223.953C672.098 221.609 671.012 218.422 671.012 214.391V214.086ZM677.785 214.578C677.785 216.984 678.238 218.828 679.145 220.109C680.051 221.375 681.348 222.008 683.035 222.008C684.676 222.008 685.957 221.383 686.879 220.133C687.801 218.867 688.262 216.852 688.262 214.086C688.262 211.727 687.801 209.898 686.879 208.602C685.957 207.305 684.66 206.656 682.988 206.656C681.332 206.656 680.051 207.305 679.145 208.602C678.238 209.883 677.785 211.875 677.785 214.578ZM720.887 201.641V227H714.113V207.125H708.137L707.715 214.953C707.449 219.125 706.629 222.164 705.254 224.07C703.879 225.977 701.832 226.953 699.113 227H696.816L696.746 221.492L697.59 221.422C698.809 221.328 699.699 220.609 700.262 219.266C700.824 217.922 701.176 215.633 701.316 212.398L701.785 201.641H720.887ZM741.395 201.641H748.168V227H741.395V211.344L732.91 227H726.113V201.641H732.91V217.273L741.395 201.641ZM763.285 217.648H760.566V227H753.793V201.641H760.566V211.18H762.98L768.512 201.641H777.066L768.77 213.711L777.84 227H768.816L763.285 217.648ZM802.449 201.641V227H795.676V207.125H789.699L789.277 214.953C789.012 219.125 788.191 222.164 786.816 224.07C785.441 225.977 783.395 226.953 780.676 227H778.379L778.309 221.492L779.152 221.422C780.371 221.328 781.262 220.609 781.824 219.266C782.387 217.922 782.738 215.633 782.879 212.398L783.348 201.641H802.449ZM822.957 201.641H829.73V227H822.957V211.344L814.473 227H807.676V201.641H814.473V217.273L822.957 201.641ZM856.895 227H850.098V217.25H841.684V227H834.91V201.641H841.684V211.812H850.098V201.641H856.895V227ZM877.426 201.641H884.199V227H877.426V211.344L868.941 227H862.145V201.641H868.941V217.273L877.426 201.641ZM899.316 217.648H896.598V227H889.824V201.641H896.598V211.18H899.012L904.543 201.641H913.098L904.801 213.711L913.871 227H904.848L899.316 217.648ZM931.707 201.641H938.48V227H931.707V211.344L923.223 227H916.426V201.641H923.223V217.273L931.707 201.641ZM998.082 217.227H984.09V213.781H998.082V217.227ZM983.035 200.938C983.035 198.438 983.785 196.406 985.285 194.844C986.785 193.281 988.738 192.5 991.145 192.5C993.551 192.5 995.504 193.281 997.004 194.844C998.52 196.391 999.277 198.469 999.277 201.078V202.531C999.277 205 998.535 207.016 997.051 208.578C995.582 210.141 993.629 210.922 991.191 210.922C988.738 210.922 986.762 210.141 985.262 208.578C983.777 207 983.035 204.938 983.035 202.391V200.938ZM987.137 202.531C987.137 204.078 987.496 205.297 988.215 206.188C988.949 207.062 989.941 207.5 991.191 207.5C992.426 207.5 993.395 207.055 994.098 206.164C994.816 205.273 995.176 204.023 995.176 202.414V200.938C995.176 199.406 994.809 198.195 994.074 197.305C993.34 196.414 992.363 195.969 991.145 195.969C989.941 195.969 988.973 196.414 988.238 197.305C987.504 198.195 987.137 199.438 987.137 201.031V202.531ZM980.176 227H972.723L962.832 204.805V227H956.012V192.875H963.465L973.379 215.117V192.875H980.176V227ZM1020.49 227H1013.71V200.891L1005.63 203.398V197.891L1019.76 192.828H1020.49V227ZM1054.57 212.891C1054.57 217.609 1053.59 221.219 1051.64 223.719C1049.68 226.219 1046.82 227.469 1043.06 227.469C1039.34 227.469 1036.5 226.242 1034.53 223.789C1032.56 221.336 1031.55 217.82 1031.5 213.242V206.961C1031.5 202.195 1032.49 198.578 1034.46 196.109C1036.44 193.641 1039.29 192.406 1043.01 192.406C1046.73 192.406 1049.57 193.633 1051.54 196.086C1053.51 198.523 1054.52 202.031 1054.57 206.609V212.891ZM1047.79 206C1047.79 203.172 1047.4 201.117 1046.62 199.836C1045.86 198.539 1044.65 197.891 1043.01 197.891C1041.42 197.891 1040.24 198.508 1039.47 199.742C1038.72 200.961 1038.32 202.875 1038.28 205.484V213.781C1038.28 216.562 1038.65 218.633 1039.4 219.992C1040.17 221.336 1041.39 222.008 1043.06 222.008C1044.71 222.008 1045.91 221.359 1046.64 220.062C1047.38 218.766 1047.76 216.781 1047.79 214.109V206ZM1082.13 212.891C1082.13 217.609 1081.15 221.219 1079.2 223.719C1077.25 226.219 1074.39 227.469 1070.62 227.469C1066.9 227.469 1064.06 226.242 1062.09 223.789C1060.12 221.336 1059.11 217.82 1059.07 213.242V206.961C1059.07 202.195 1060.05 198.578 1062.02 196.109C1064 193.641 1066.86 192.406 1070.57 192.406C1074.29 192.406 1077.14 193.633 1079.11 196.086C1081.07 198.523 1082.08 202.031 1082.13 206.609V212.891ZM1075.36 206C1075.36 203.172 1074.96 201.117 1074.18 199.836C1073.42 198.539 1072.21 197.891 1070.57 197.891C1068.98 197.891 1067.8 198.508 1067.04 199.742C1066.29 200.961 1065.89 202.875 1065.84 205.484V213.781C1065.84 216.562 1066.21 218.633 1066.96 219.992C1067.73 221.336 1068.95 222.008 1070.62 222.008C1072.28 222.008 1073.47 221.359 1074.21 220.062C1074.94 218.766 1075.32 216.781 1075.36 214.109V206ZM165.02 395H154.438V352.355H133.941V395H123.395V343.812H165.02V395ZM207.875 376.332C207.875 382.191 206.539 386.891 203.867 390.43C201.219 393.945 197.633 395.703 193.109 395.703C189.266 395.703 186.16 394.367 183.793 391.695V409.625H173.633V356.961H183.055L183.406 360.688C185.867 357.734 189.078 356.258 193.039 356.258C197.727 356.258 201.371 357.992 203.973 361.461C206.574 364.93 207.875 369.711 207.875 375.805V376.332ZM197.715 375.594C197.715 372.055 197.082 369.324 195.816 367.402C194.574 365.48 192.758 364.52 190.367 364.52C187.18 364.52 184.988 365.738 183.793 368.176V383.75C185.035 386.258 187.25 387.512 190.438 387.512C195.289 387.512 197.715 383.539 197.715 375.594ZM237.125 356.961H247.285V395H237.125V371.516L224.398 395H214.203V356.961H224.398V380.41L237.125 356.961ZM255.723 395V356.961H271.613C276.793 356.961 280.766 357.875 283.531 359.703C286.297 361.531 287.68 364.156 287.68 367.578C287.68 369.336 287.094 370.918 285.922 372.324C284.773 373.707 283.086 374.773 280.859 375.523C283.578 376.039 285.711 377.059 287.258 378.582C288.828 380.082 289.613 381.934 289.613 384.137C289.613 387.676 288.277 390.371 285.605 392.223C282.957 394.074 279.102 395 274.039 395H255.723ZM265.883 379.215V386.879H274.074C277.66 386.879 279.453 385.625 279.453 383.117C279.453 380.562 277.742 379.262 274.32 379.215H265.883ZM265.883 372.395H272.176C275.738 372.348 277.52 371.199 277.52 368.949C277.52 367.566 277.027 366.582 276.043 365.996C275.082 365.41 273.605 365.117 271.613 365.117H265.883V372.395ZM313.344 395.703C307.766 395.703 303.219 393.992 299.703 390.57C296.211 387.148 294.465 382.59 294.465 376.895V375.91C294.465 372.09 295.203 368.68 296.68 365.68C298.156 362.656 300.242 360.336 302.938 358.719C305.656 357.078 308.75 356.258 312.219 356.258C317.422 356.258 321.512 357.898 324.488 361.18C327.488 364.461 328.988 369.113 328.988 375.137V379.285H304.766C305.094 381.77 306.078 383.762 307.719 385.262C309.383 386.762 311.48 387.512 314.012 387.512C317.926 387.512 320.984 386.094 323.188 383.258L328.18 388.848C326.656 391.004 324.594 392.691 321.992 393.91C319.391 395.105 316.508 395.703 313.344 395.703ZM312.184 364.484C310.168 364.484 308.527 365.164 307.262 366.523C306.02 367.883 305.223 369.828 304.871 372.359H319.004V371.551C318.957 369.301 318.348 367.566 317.176 366.348C316.004 365.105 314.34 364.484 312.184 364.484ZM365.938 365.117H353.738V395H343.543V365.117H331.555V356.961H365.938V365.117ZM384.641 387.512C386.516 387.512 388.039 386.996 389.211 385.965C390.383 384.934 390.992 383.562 391.039 381.852H400.566C400.543 384.43 399.84 386.797 398.457 388.953C397.074 391.086 395.176 392.75 392.762 393.945C390.371 395.117 387.723 395.703 384.816 395.703C379.379 395.703 375.09 393.98 371.949 390.535C368.809 387.066 367.238 382.285 367.238 376.191V375.523C367.238 369.664 368.797 364.988 371.914 361.496C375.031 358.004 379.309 356.258 384.746 356.258C389.504 356.258 393.312 357.617 396.172 360.336C399.055 363.031 400.52 366.629 400.566 371.129H391.039C390.992 369.16 390.383 367.566 389.211 366.348C388.039 365.105 386.492 364.484 384.57 364.484C382.203 364.484 380.41 365.352 379.191 367.086C377.996 368.797 377.398 371.586 377.398 375.453V376.508C377.398 380.422 377.996 383.234 379.191 384.945C380.387 386.656 382.203 387.512 384.641 387.512ZM437.938 365.117H425.738V395H415.543V365.117H403.555V356.961H437.938V365.117ZM443.738 395V356.961H459.629C464.809 356.961 468.781 357.875 471.547 359.703C474.312 361.531 475.695 364.156 475.695 367.578C475.695 369.336 475.109 370.918 473.938 372.324C472.789 373.707 471.102 374.773 468.875 375.523C471.594 376.039 473.727 377.059 475.273 378.582C476.844 380.082 477.629 381.934 477.629 384.137C477.629 387.676 476.293 390.371 473.621 392.223C470.973 394.074 467.117 395 462.055 395H443.738ZM453.898 379.215V386.879H462.09C465.676 386.879 467.469 385.625 467.469 383.117C467.469 380.562 465.758 379.262 462.336 379.215H453.898ZM453.898 372.395H460.191C463.754 372.348 465.535 371.199 465.535 368.949C465.535 367.566 465.043 366.582 464.059 365.996C463.098 365.41 461.621 365.117 459.629 365.117H453.898V372.395ZM497.633 380.621L504.664 356.961H515.562L500.27 400.906L499.426 402.91C497.152 407.879 493.402 410.363 488.176 410.363C486.699 410.363 485.199 410.141 483.676 409.695V401.996L485.223 402.031C487.145 402.031 488.574 401.738 489.512 401.152C490.473 400.566 491.223 399.594 491.762 398.234L492.957 395.105L479.633 356.961H490.566L497.633 380.621ZM536.586 395.703C531.008 395.703 526.461 393.992 522.945 390.57C519.453 387.148 517.707 382.59 517.707 376.895V375.91C517.707 372.09 518.445 368.68 519.922 365.68C521.398 362.656 523.484 360.336 526.18 358.719C528.898 357.078 531.992 356.258 535.461 356.258C540.664 356.258 544.754 357.898 547.73 361.18C550.73 364.461 552.23 369.113 552.23 375.137V379.285H528.008C528.336 381.77 529.32 383.762 530.961 385.262C532.625 386.762 534.723 387.512 537.254 387.512C541.168 387.512 544.227 386.094 546.43 383.258L551.422 388.848C549.898 391.004 547.836 392.691 545.234 393.91C542.633 395.105 539.75 395.703 536.586 395.703ZM535.426 364.484C533.41 364.484 531.77 365.164 530.504 366.523C529.262 367.883 528.465 369.828 528.113 372.359H542.246V371.551C542.199 369.301 541.59 367.566 540.418 366.348C539.246 365.105 537.582 364.484 535.426 364.484ZM589.18 365.117H576.98V395H566.785V365.117H554.797V356.961H589.18V365.117ZM612.91 395V356.961H628.801C633.98 356.961 637.953 357.875 640.719 359.703C643.484 361.531 644.867 364.156 644.867 367.578C644.867 369.336 644.281 370.918 643.109 372.324C641.961 373.707 640.273 374.773 638.047 375.523C640.766 376.039 642.898 377.059 644.445 378.582C646.016 380.082 646.801 381.934 646.801 384.137C646.801 387.676 645.465 390.371 642.793 392.223C640.145 394.074 636.289 395 631.227 395H612.91ZM623.07 379.215V386.879H631.262C634.848 386.879 636.641 385.625 636.641 383.117C636.641 380.562 634.93 379.262 631.508 379.215H623.07ZM623.07 372.395H629.363C632.926 372.348 634.707 371.199 634.707 368.949C634.707 367.566 634.215 366.582 633.23 365.996C632.27 365.41 630.793 365.117 628.801 365.117H623.07V372.395ZM675.066 395C674.598 394.086 674.258 392.949 674.047 391.59C671.586 394.332 668.387 395.703 664.449 395.703C660.723 395.703 657.629 394.625 655.168 392.469C652.73 390.312 651.512 387.594 651.512 384.312C651.512 380.281 653 377.188 655.977 375.031C658.977 372.875 663.301 371.785 668.949 371.762H673.625V369.582C673.625 367.824 673.168 366.418 672.254 365.363C671.363 364.309 669.945 363.781 668 363.781C666.289 363.781 664.941 364.191 663.957 365.012C662.996 365.832 662.516 366.957 662.516 368.387H652.355C652.355 366.184 653.035 364.145 654.395 362.27C655.754 360.395 657.676 358.93 660.16 357.875C662.645 356.797 665.434 356.258 668.527 356.258C673.215 356.258 676.93 357.441 679.672 359.809C682.438 362.152 683.82 365.457 683.82 369.723V386.211C683.844 389.82 684.348 392.551 685.332 394.402V395H675.066ZM666.664 387.934C668.164 387.934 669.547 387.605 670.812 386.949C672.078 386.27 673.016 385.367 673.625 384.242V377.703H669.828C664.742 377.703 662.035 379.461 661.707 382.977L661.672 383.574C661.672 384.84 662.117 385.883 663.008 386.703C663.898 387.523 665.117 387.934 666.664 387.934ZM707.445 387.512C709.32 387.512 710.844 386.996 712.016 385.965C713.188 384.934 713.797 383.562 713.844 381.852H723.371C723.348 384.43 722.645 386.797 721.262 388.953C719.879 391.086 717.98 392.75 715.566 393.945C713.176 395.117 710.527 395.703 707.621 395.703C702.184 395.703 697.895 393.98 694.754 390.535C691.613 387.066 690.043 382.285 690.043 376.191V375.523C690.043 369.664 691.602 364.988 694.719 361.496C697.836 358.004 702.113 356.258 707.551 356.258C712.309 356.258 716.117 357.617 718.977 360.336C721.859 363.031 723.324 366.629 723.371 371.129H713.844C713.797 369.16 713.188 367.566 712.016 366.348C710.844 365.105 709.297 364.484 707.375 364.484C705.008 364.484 703.215 365.352 701.996 367.086C700.801 368.797 700.203 371.586 700.203 375.453V376.508C700.203 380.422 700.801 383.234 701.996 384.945C703.191 386.656 705.008 387.512 707.445 387.512ZM780.078 395H769.883V380.375H757.262V395H747.102V356.961H757.262V372.219H769.883V356.961H780.078V395ZM809.996 395C809.527 394.086 809.188 392.949 808.977 391.59C806.516 394.332 803.316 395.703 799.379 395.703C795.652 395.703 792.559 394.625 790.098 392.469C787.66 390.312 786.441 387.594 786.441 384.312C786.441 380.281 787.93 377.188 790.906 375.031C793.906 372.875 798.23 371.785 803.879 371.762H808.555V369.582C808.555 367.824 808.098 366.418 807.184 365.363C806.293 364.309 804.875 363.781 802.93 363.781C801.219 363.781 799.871 364.191 798.887 365.012C797.926 365.832 797.445 366.957 797.445 368.387H787.285C787.285 366.184 787.965 364.145 789.324 362.27C790.684 360.395 792.605 358.93 795.09 357.875C797.574 356.797 800.363 356.258 803.457 356.258C808.145 356.258 811.859 357.441 814.602 359.809C817.367 362.152 818.75 365.457 818.75 369.723V386.211C818.773 389.82 819.277 392.551 820.262 394.402V395H809.996ZM801.594 387.934C803.094 387.934 804.477 387.605 805.742 386.949C807.008 386.27 807.945 385.367 808.555 384.242V377.703H804.758C799.672 377.703 796.965 379.461 796.637 382.977L796.602 383.574C796.602 384.84 797.047 385.883 797.938 386.703C798.828 387.523 800.047 387.934 801.594 387.934ZM877.461 395H867.266V380.375H854.645V395H844.484V356.961H854.645V372.219H867.266V356.961H877.461V395ZM907.379 395C906.91 394.086 906.57 392.949 906.359 391.59C903.898 394.332 900.699 395.703 896.762 395.703C893.035 395.703 889.941 394.625 887.48 392.469C885.043 390.312 883.824 387.594 883.824 384.312C883.824 380.281 885.312 377.188 888.289 375.031C891.289 372.875 895.613 371.785 901.262 371.762H905.938V369.582C905.938 367.824 905.48 366.418 904.566 365.363C903.676 364.309 902.258 363.781 900.312 363.781C898.602 363.781 897.254 364.191 896.27 365.012C895.309 365.832 894.828 366.957 894.828 368.387H884.668C884.668 366.184 885.348 364.145 886.707 362.27C888.066 360.395 889.988 358.93 892.473 357.875C894.957 356.797 897.746 356.258 900.84 356.258C905.527 356.258 909.242 357.441 911.984 359.809C914.75 362.152 916.133 365.457 916.133 369.723V386.211C916.156 389.82 916.66 392.551 917.645 394.402V395H907.379ZM898.977 387.934C900.477 387.934 901.859 387.605 903.125 386.949C904.391 386.27 905.328 385.367 905.938 384.242V377.703H902.141C897.055 377.703 894.348 379.461 894.02 382.977L893.984 383.574C893.984 384.84 894.43 385.883 895.32 386.703C896.211 387.523 897.43 387.934 898.977 387.934ZM934.098 356.961V386.809H944.539V356.961H954.734V386.809H965.176V356.961H975.336V395H923.938V356.961H934.098ZM1001 395.703C995.422 395.703 990.875 393.992 987.359 390.57C983.867 387.148 982.121 382.59 982.121 376.895V375.91C982.121 372.09 982.859 368.68 984.336 365.68C985.812 362.656 987.898 360.336 990.594 358.719C993.312 357.078 996.406 356.258 999.875 356.258C1005.08 356.258 1009.17 357.898 1012.14 361.18C1015.14 364.461 1016.64 369.113 1016.64 375.137V379.285H992.422C992.75 381.77 993.734 383.762 995.375 385.262C997.039 386.762 999.137 387.512 1001.67 387.512C1005.58 387.512 1008.64 386.094 1010.84 383.258L1015.84 388.848C1014.31 391.004 1012.25 392.691 1009.65 393.91C1007.05 395.105 1004.16 395.703 1001 395.703ZM999.84 364.484C997.824 364.484 996.184 365.164 994.918 366.523C993.676 367.883 992.879 369.828 992.527 372.359H1006.66V371.551C1006.61 369.301 1006 367.566 1004.83 366.348C1003.66 365.105 1002 364.484 999.84 364.484ZM1045.61 383.012L1055.56 356.961H1068.29V395H1058.13V371.656L1049.02 395H1042.2L1033.27 372.043V395H1023.11V356.961H1035.73L1045.61 383.012ZM485.539 479H475.344V449.188H462.617V479H452.457V440.961H485.539V479ZM491.727 459.629C491.727 455.855 492.453 452.492 493.906 449.539C495.359 446.586 497.445 444.301 500.164 442.684C502.906 441.066 506.082 440.258 509.691 440.258C514.824 440.258 519.008 441.828 522.242 444.969C525.5 448.109 527.316 452.375 527.691 457.766L527.762 460.367C527.762 466.203 526.133 470.891 522.875 474.43C519.617 477.945 515.246 479.703 509.762 479.703C504.277 479.703 499.895 477.945 496.613 474.43C493.355 470.914 491.727 466.133 491.727 460.086V459.629ZM501.887 460.367C501.887 463.977 502.566 466.742 503.926 468.664C505.285 470.562 507.23 471.512 509.762 471.512C512.223 471.512 514.145 470.574 515.527 468.699C516.91 466.801 517.602 463.777 517.602 459.629C517.602 456.09 516.91 453.348 515.527 451.402C514.145 449.457 512.199 448.484 509.691 448.484C507.207 448.484 505.285 449.457 503.926 451.402C502.566 453.324 501.887 456.312 501.887 460.367ZM568.262 460.332C568.262 466.191 566.926 470.891 564.254 474.43C561.605 477.945 558.02 479.703 553.496 479.703C549.652 479.703 546.547 478.367 544.18 475.695V493.625H534.02V440.961H543.441L543.793 444.688C546.254 441.734 549.465 440.258 553.426 440.258C558.113 440.258 561.758 441.992 564.359 445.461C566.961 448.93 568.262 453.711 568.262 459.805V460.332ZM558.102 459.594C558.102 456.055 557.469 453.324 556.203 451.402C554.961 449.48 553.145 448.52 550.754 448.52C547.566 448.52 545.375 449.738 544.18 452.176V467.75C545.422 470.258 547.637 471.512 550.824 471.512C555.676 471.512 558.102 467.539 558.102 459.594ZM604.684 449.117H592.484V479H582.289V449.117H570.301V440.961H604.684V449.117ZM631.297 479C630.828 478.086 630.488 476.949 630.277 475.59C627.816 478.332 624.617 479.703 620.68 479.703C616.953 479.703 613.859 478.625 611.398 476.469C608.961 474.312 607.742 471.594 607.742 468.312C607.742 464.281 609.23 461.188 612.207 459.031C615.207 456.875 619.531 455.785 625.18 455.762H629.855V453.582C629.855 451.824 629.398 450.418 628.484 449.363C627.594 448.309 626.176 447.781 624.23 447.781C622.52 447.781 621.172 448.191 620.188 449.012C619.227 449.832 618.746 450.957 618.746 452.387H608.586C608.586 450.184 609.266 448.145 610.625 446.27C611.984 444.395 613.906 442.93 616.391 441.875C618.875 440.797 621.664 440.258 624.758 440.258C629.445 440.258 633.16 441.441 635.902 443.809C638.668 446.152 640.051 449.457 640.051 453.723V470.211C640.074 473.82 640.578 476.551 641.562 478.402V479H631.297ZM622.895 471.934C624.395 471.934 625.777 471.605 627.043 470.949C628.309 470.27 629.246 469.367 629.855 468.242V461.703H626.059C620.973 461.703 618.266 463.461 617.938 466.977L617.902 467.574C617.902 468.84 618.348 469.883 619.238 470.703C620.129 471.523 621.348 471.934 622.895 471.934ZM680.938 440.961V479H670.777V449.188H661.812L661.18 460.93C660.781 467.188 659.551 471.746 657.488 474.605C655.426 477.465 652.355 478.93 648.277 479H644.832L644.727 470.738L645.992 470.633C647.82 470.492 649.156 469.414 650 467.398C650.844 465.383 651.371 461.949 651.582 457.098L652.285 440.961H680.938ZM706.285 479.703C700.707 479.703 696.16 477.992 692.645 474.57C689.152 471.148 687.406 466.59 687.406 460.895V459.91C687.406 456.09 688.145 452.68 689.621 449.68C691.098 446.656 693.184 444.336 695.879 442.719C698.598 441.078 701.691 440.258 705.16 440.258C710.363 440.258 714.453 441.898 717.43 445.18C720.43 448.461 721.93 453.113 721.93 459.137V463.285H697.707C698.035 465.77 699.02 467.762 700.66 469.262C702.324 470.762 704.422 471.512 706.953 471.512C710.867 471.512 713.926 470.094 716.129 467.258L721.121 472.848C719.598 475.004 717.535 476.691 714.934 477.91C712.332 479.105 709.449 479.703 706.285 479.703ZM705.125 448.484C703.109 448.484 701.469 449.164 700.203 450.523C698.961 451.883 698.164 453.828 697.812 456.359H711.945V455.551C711.898 453.301 711.289 451.566 710.117 450.348C708.945 449.105 707.281 448.484 705.125 448.484ZM738.066 463.285H729.629L728.434 427.812H739.262L738.066 463.285ZM733.848 468.84C735.559 468.84 736.93 469.344 737.961 470.352C739.016 471.359 739.543 472.648 739.543 474.219C739.543 475.766 739.016 477.043 737.961 478.051C736.93 479.059 735.559 479.562 733.848 479.562C732.16 479.562 730.789 479.059 729.734 478.051C728.703 477.043 728.188 475.766 728.188 474.219C728.188 472.672 728.703 471.395 729.734 470.387C730.789 469.355 732.16 468.84 733.848 468.84Z" fill="#6283D8"/>
<defs>
<filter id="filter0_f" x="-282" y="169" width="659.132" height="663.825" filterUnits="userSpaceOnUse" color-interpolation-filters="sRGB">
<feFlood flood-opacity="0" result="BackgroundImageFix"/>
<feBlend mode="normal" in="SourceGraphic" in2="BackgroundImageFix" result="shape"/>
<feGaussianBlur stdDeviation="5" result="effect1_foregroundBlur"/>
</filter>
<filter id="filter1_f" x="316" y="-289" width="621.493" height="628.659" filterUnits="userSpaceOnUse" color-interpolation-filters="sRGB">
<feFlood flood-opacity="0" result="BackgroundImageFix"/>
<feBlend mode="normal" in="SourceGraphic" in2="BackgroundImageFix" result="shape"/>
<feGaussianBlur stdDeviation="5" result="effect1_foregroundBlur"/>
</filter>
<filter id="filter2_f" x="812" y="342" width="498" height="486" filterUnits="userSpaceOnUse" color-interpolation-filters="sRGB">
<feFlood flood-opacity="0" result="BackgroundImageFix"/>
<feBlend mode="normal" in="SourceGraphic" in2="BackgroundImageFix" result="shape"/>
<feGaussianBlur stdDeviation="5" result="effect1_foregroundBlur"/>
</filter>
</defs>
</svg>
