<svg width="166" height="125" viewBox="0 0 166 125" fill="none" xmlns="http://www.w3.org/2000/svg">
<path d="M113.819 26H23.1811C10.3692 26 0 36.4372 0 49.1814V101.22C0 114.021 10.4302 124.402 23.1811 124.402H113.819C126.593 124.402 137 113.996 137 101.22V49.1814C137 36.4206 126.614 26 113.819 26ZM113.819 36.2445C116.442 36.2445 118.884 37.0317 120.925 38.3787L71.6285 70.6433C69.7282 71.8872 67.2718 71.8872 65.3709 70.6433L16.075 38.3787C20.5318 35.4372 15.5827 36.2445 113.819 36.2445ZM10.4436 46.9361L44.3661 69.1384L10.2445 100.413C10.2445 44.7422 10.1591 48.5539 10.4436 46.9361ZM113.819 114.157H23.1811C19.7387 114.157 16.6086 112.803 14.2881 110.603L53.2109 74.9277C69.1558 85.3641 71.0393 83.2724 83.7891 74.9277L122.712 110.603C120.392 112.803 117.261 114.157 113.819 114.157ZM126.756 100.413L92.6345 69.1384L126.557 46.9361C126.841 48.5539 126.756 44.7521 126.756 100.413Z" fill="#2C71C1"/>
<path d="M105.636 53.377L85.0017 32.7429L78 39.7446L105.636 67.3804L165.015 8.00174L158.013 1L105.636 53.377Z" fill="#35C932" stroke="#169601"/>
</svg>
