<svg width="111" height="111" viewBox="0 0 111 111" fill="none" xmlns="http://www.w3.org/2000/svg">
<path d="M110.408 100.058C111.979 103.691 110.307 107.909 106.677 109.476C103.043 111.053 98.8275 109.378 97.2557 105.745C90.3454 89.7675 74.0143 79.4414 55.6433 79.4414C36.8495 79.4414 20.418 89.7603 13.7872 105.726C12.6406 108.482 9.97253 110.145 7.16588 110.145C6.24865 110.145 5.31947 109.971 4.41895 109.598C0.764333 108.076 -0.967429 103.882 0.549356 100.23C9.4112 78.8944 31.0379 65.1096 55.6409 65.1096C79.7303 65.1144 101.228 78.8299 110.408 100.058ZM5.84019 15.6672C5.84019 7.49086 12.4734 0.855225 20.6521 0.855225C28.8284 0.855225 35.4617 7.48847 35.4617 15.6672C35.4617 23.8506 28.8284 30.4839 20.6521 30.4839C12.4734 30.4815 5.84019 23.8483 5.84019 15.6672ZM73.0015 15.6672C73.0015 7.49086 79.6395 0.855225 87.8182 0.855225C95.9945 0.855225 102.628 7.48847 102.628 15.6672C102.628 23.8506 95.9969 30.4839 87.8182 30.4839C79.6395 30.4839 73.0015 23.8483 73.0015 15.6672Z" fill="#2C71C1"/>
</svg>
